<svg version="1.1" xmlns="http://www.w3.org/2000/svg" viewBox="0 0 1280.6913519047596 615.8454193670618" width="1280.6913519047596" height="615.8454193670618">
  <!-- svg-source:excalidraw -->
  
  <defs>
    <style class="style-fonts">
      
    </style>
    
  </defs>
  <rect x="0" y="0" width="1280.6913519047596" height="615.8454193670618" fill="#ffffff"></rect><g stroke-linecap="round" transform="translate(803.50440179234 29.144917152425535) rotate(0 227.83608669681703 196.85902709711274)"><path d="M0 0 L455.67 0 L455.67 393.72 L0 393.72" stroke="none" stroke-width="0" fill="#e9ecef"></path><path d="M0 0 C144.74 0, 289.48 0, 455.67 0 M0 0 C174.3 0, 348.6 0, 455.67 0 M455.67 0 C455.67 145.33, 455.67 290.66, 455.67 393.72 M455.67 0 C455.67 141.24, 455.67 282.49, 455.67 393.72 M455.67 393.72 C278.42 393.72, 101.17 393.72, 0 393.72 M455.67 393.72 C317.24 393.72, 178.82 393.72, 0 393.72 M0 393.72 C0 286.3, 0 178.88, 0 0 M0 393.72 C0 268.36, 0 143, 0 0" stroke="#1e1e1e" stroke-width="1" fill="none"></path></g><g stroke-linecap="round" transform="translate(833.7817429540014 46.764043657096124) rotate(0 196 117.5)"><path d="M0 0 L392 0 L392 235 L0 235" stroke="none" stroke-width="0" fill="#ffd8a8"></path><path d="M0 0 C79.8 0, 159.6 0, 392 0 M0 0 C100.41 0, 200.83 0, 392 0 M392 0 C392 57.75, 392 115.51, 392 235 M392 0 C392 72.44, 392 144.88, 392 235 M392 235 C269.69 235, 147.38 235, 0 235 M392 235 C281.71 235, 171.41 235, 0 235 M0 235 C0 168.45, 0 101.9, 0 0 M0 235 C0 154.7, 0 74.41, 0 0" stroke="#aa6825" stroke-width="1" fill="none"></path></g><g transform="translate(1011.9984101292944 51.764043657096124) rotate(0 17.78333282470703 9.200000000000003)"><text x="17.78333282470703" y="13.5203125" font-family="Helvetica, Segoe UI Emoji" font-size="16px" fill="#1e1e1e" text-anchor="middle" style="white-space: pre;" direction="ltr" dominant-baseline="alphabetic">Error</text></g><g stroke-linecap="round" transform="translate(848.9271873452911 74.58678363368637) rotate(0 77.75822591880154 95.83441811093144)"><path d="M0 0 L155.52 0 L155.52 191.67 L0 191.67" stroke="none" stroke-width="0" fill="#fff9db"></path><path d="M0 0 C55.4 0, 110.79 0, 155.52 0 M0 0 C50.6 0, 101.19 0, 155.52 0 M155.52 0 C155.52 51.02, 155.52 102.05, 155.52 191.67 M155.52 0 C155.52 44.02, 155.52 88.04, 155.52 191.67 M155.52 191.67 C122.18 191.67, 88.84 191.67, 0 191.67 M155.52 191.67 C98.25 191.67, 40.99 191.67, 0 191.67 M0 191.67 C0 153.12, 0 114.57, 0 0 M0 191.67 C0 120.75, 0 49.84, 0 0" stroke="#a18072" stroke-width="1" fill="none"></path></g><g transform="translate(881.7687453258602 161.22120174461782) rotate(0 44.91666793823242 9.199999999999989)"><text x="44.91666793823242" y="13.5203125" font-family="Helvetica, Segoe UI Emoji" font-size="16px" fill="#1e1e1e" text-anchor="middle" style="white-space: pre;" direction="ltr" dominant-baseline="alphabetic">May be valid</text></g><g stroke-linecap="round" transform="translate(863.4227881770215 97.01059144155653) rotate(0 61.55859551905124 23.5)"><path d="M11.75 0 C48.06 0, 84.37 0, 111.37 0 C119.2 0, 123.12 3.92, 123.12 11.75 C123.12 16.96, 123.12 22.18, 123.12 35.25 C123.12 43.08, 119.2 47, 111.37 47 C82.88 47, 54.4 47, 11.75 47 C3.92 47, 0 43.08, 0 35.25 C0 29.95, 0 24.65, 0 11.75 C0 3.92, 3.92 0, 11.75 0" stroke="none" stroke-width="0" fill="#ffffff"></path><path d="M11.75 0 C50.44 0, 89.13 0, 111.37 0 M11.75 0 C50.92 0, 90.09 0, 111.37 0 M111.37 0 C119.2 0, 123.12 3.92, 123.12 11.75 M111.37 0 C119.2 0, 123.12 3.92, 123.12 11.75 M123.12 11.75 C123.12 19.42, 123.12 27.1, 123.12 35.25 M123.12 11.75 C123.12 17.1, 123.12 22.45, 123.12 35.25 M123.12 35.25 C123.12 43.08, 119.2 47, 111.37 47 M123.12 35.25 C123.12 43.08, 119.2 47, 111.37 47 M111.37 47 C79.21 47, 47.06 47, 11.75 47 M111.37 47 C87.79 47, 64.21 47, 11.75 47 M11.75 47 C3.92 47, 0 43.08, 0 35.25 M11.75 47 C3.92 47, 0 43.08, 0 35.25 M0 35.25 C0 26.74, 0 18.22, 0 11.75 M0 35.25 C0 30.46, 0 25.67, 0 11.75 M0 11.75 C0 3.92, 3.92 0, 11.75 0 M0 11.75 C0 3.92, 3.92 0, 11.75 0" stroke="#1e1e1e" stroke-width="1" fill="none"></path></g><g transform="translate(868.4980501084262 111.31059144155654) rotate(0 56.483333587646484 9.199999999999989)"><text x="56.483333587646484" y="13.5203125" font-family="Helvetica, Segoe UI Emoji" font-size="16px" fill="#1e1e1e" text-anchor="middle" style="white-space: pre;" direction="ltr" dominant-baseline="alphabetic">Branch_refused</text></g><g stroke-linecap="round" transform="translate(862.8308473130617 200.0043442720385) rotate(0 63.17855855902627 23.5)"><path d="M11.75 0 C38.44 0, 65.12 0, 114.61 0 C122.44 0, 126.36 3.92, 126.36 11.75 C126.36 17.42, 126.36 23.09, 126.36 35.25 C126.36 43.08, 122.44 47, 114.61 47 C91.34 47, 68.08 47, 11.75 47 C3.92 47, 0 43.08, 0 35.25 C0 28.3, 0 21.36, 0 11.75 C0 3.92, 3.92 0, 11.75 0" stroke="none" stroke-width="0" fill="#ffffff"></path><path d="M11.75 0 C34.18 0, 56.62 0, 114.61 0 M11.75 0 C42.77 0, 73.78 0, 114.61 0 M114.61 0 C122.44 0, 126.36 3.92, 126.36 11.75 M114.61 0 C122.44 0, 126.36 3.92, 126.36 11.75 M126.36 11.75 C126.36 19.56, 126.36 27.37, 126.36 35.25 M126.36 11.75 C126.36 19.04, 126.36 26.33, 126.36 35.25 M126.36 35.25 C126.36 43.08, 122.44 47, 114.61 47 M126.36 35.25 C126.36 43.08, 122.44 47, 114.61 47 M114.61 47 C79.3 47, 44 47, 11.75 47 M114.61 47 C84.54 47, 54.46 47, 11.75 47 M11.75 47 C3.92 47, 0 43.08, 0 35.25 M11.75 47 C3.92 47, 0 43.08, 0 35.25 M0 35.25 C0 28.52, 0 21.8, 0 11.75 M0 35.25 C0 27.06, 0 18.87, 0 11.75 M0 11.75 C0 3.92, 3.92 0, 11.75 0 M0 11.75 C0 3.92, 3.92 0, 11.75 0" stroke="#1e1e1e" stroke-width="1" fill="none"></path></g><g transform="translate(868.1760738103204 214.30434427203852) rotate(0 57.83333206176758 9.199999999999989)"><text x="57.83333206176758" y="13.5203125" font-family="Helvetica, Segoe UI Emoji" font-size="16px" fill="#1e1e1e" text-anchor="middle" style="white-space: pre;" direction="ltr" dominant-baseline="alphabetic">Branch_delayed</text></g><g stroke-linecap="round" transform="translate(1046.0267817103152 78.53073928165645) rotate(0 73.31427027083154 91.39046246296132)"><path d="M0 0 L146.63 0 L146.63 182.78 L0 182.78" stroke="none" stroke-width="0" fill="#ffc9c9"></path><path d="M0 0 C35.73 0, 71.46 0, 146.63 0 M0 0 C46.38 0, 92.76 0, 146.63 0 M146.63 0 C146.63 64.76, 146.63 129.53, 146.63 182.78 M146.63 0 C146.63 58.49, 146.63 116.99, 146.63 182.78 M146.63 182.78 C101.49 182.78, 56.36 182.78, 0 182.78 M146.63 182.78 C100.41 182.78, 54.19 182.78, 0 182.78 M0 182.78 C0 139.08, 0 95.38, 0 0 M0 182.78 C0 117.24, 0 51.7, 0 0" stroke="#e03131" stroke-width="1" fill="none"></path></g><g transform="translate(1055.7410535070258 160.72120174461776) rotate(0 63.599998474121094 9.199999999999989)"><text x="63.599998474121094" y="13.5203125" font-family="Helvetica, Segoe UI Emoji" font-size="16px" fill="#1e1e1e" text-anchor="middle" style="white-space: pre;" direction="ltr" dominant-baseline="alphabetic">Never reclassified</text></g><g stroke-linecap="round" transform="translate(1057.2824564620955 98.78201486516707) rotate(0 61.55859551905124 23.5)"><path d="M11.75 0 C42.27 0, 72.8 0, 111.37 0 C119.2 0, 123.12 3.92, 123.12 11.75 C123.12 17.19, 123.12 22.63, 123.12 35.25 C123.12 43.08, 119.2 47, 111.37 47 C88.72 47, 66.07 47, 11.75 47 C3.92 47, 0 43.08, 0 35.25 C0 28.17, 0 21.1, 0 11.75 C0 3.92, 3.92 0, 11.75 0" stroke="none" stroke-width="0" fill="#ffffff"></path><path d="M11.75 0 C50.3 0, 88.85 0, 111.37 0 M11.75 0 C38.62 0, 65.49 0, 111.37 0 M111.37 0 C119.2 0, 123.12 3.92, 123.12 11.75 M111.37 0 C119.2 0, 123.12 3.92, 123.12 11.75 M123.12 11.75 C123.12 18.05, 123.12 24.35, 123.12 35.25 M123.12 11.75 C123.12 18.63, 123.12 25.5, 123.12 35.25 M123.12 35.25 C123.12 43.08, 119.2 47, 111.37 47 M123.12 35.25 C123.12 43.08, 119.2 47, 111.37 47 M111.37 47 C91.11 47, 70.86 47, 11.75 47 M111.37 47 C86.14 47, 60.92 47, 11.75 47 M11.75 47 C3.92 47, 0 43.08, 0 35.25 M11.75 47 C3.92 47, 0 43.08, 0 35.25 M0 35.25 C0 26.82, 0 18.39, 0 11.75 M0 35.25 C0 28.5, 0 21.74, 0 11.75 M0 11.75 C0 3.92, 3.92 0, 11.75 0 M0 11.75 C0 3.92, 3.92 0, 11.75 0" stroke="#1e1e1e" stroke-width="1" fill="none"></path></g><g transform="translate(1089.041052744086 113.08201486516708) rotate(0 29.799999237060547 9.199999999999989)"><text x="29.799999237060547" y="13.5203125" font-family="Helvetica, Segoe UI Emoji" font-size="16px" fill="#1e1e1e" text-anchor="middle" style="white-space: pre;" direction="ltr" dominant-baseline="alphabetic">Refused</text></g><g stroke-linecap="round" transform="translate(1057.6344712461055 193.06038862406854) rotate(0 61.55859551905124 23.5)"><path d="M11.75 0 C34.74 0, 57.74 0, 111.37 0 C119.2 0, 123.12 3.92, 123.12 11.75 C123.12 18.71, 123.12 25.67, 123.12 35.25 C123.12 43.08, 119.2 47, 111.37 47 C79.64 47, 47.91 47, 11.75 47 C3.92 47, 0 43.08, 0 35.25 C0 30.1, 0 24.96, 0 11.75 C0 3.92, 3.92 0, 11.75 0" stroke="none" stroke-width="0" fill="#ffffff"></path><path d="M11.75 0 C45.95 0, 80.15 0, 111.37 0 M11.75 0 C32.61 0, 53.46 0, 111.37 0 M111.37 0 C119.2 0, 123.12 3.92, 123.12 11.75 M111.37 0 C119.2 0, 123.12 3.92, 123.12 11.75 M123.12 11.75 C123.12 18.63, 123.12 25.51, 123.12 35.25 M123.12 11.75 C123.12 18.91, 123.12 26.08, 123.12 35.25 M123.12 35.25 C123.12 43.08, 119.2 47, 111.37 47 M123.12 35.25 C123.12 43.08, 119.2 47, 111.37 47 M111.37 47 C87.6 47, 63.84 47, 11.75 47 M111.37 47 C88.85 47, 66.32 47, 11.75 47 M11.75 47 C3.92 47, 0 43.08, 0 35.25 M11.75 47 C3.92 47, 0 43.08, 0 35.25 M0 35.25 C0 30.07, 0 24.89, 0 11.75 M0 35.25 C0 28.66, 0 22.06, 0 11.75 M0 11.75 C0 3.92, 3.92 0, 11.75 0 M0 11.75 C0 3.92, 3.92 0, 11.75 0" stroke="#1e1e1e" stroke-width="1" fill="none"></path></g><g transform="translate(1086.2930652392777 207.36038862406855) rotate(0 32.900001525878906 9.199999999999989)"><text x="32.900001525878906" y="13.5203125" font-family="Helvetica, Segoe UI Emoji" font-size="16px" fill="#1e1e1e" text-anchor="middle" style="white-space: pre;" direction="ltr" dominant-baseline="alphabetic">Outdated</text></g><g stroke-linecap="round" transform="translate(841.987893479563 187.14491715242553) rotate(0 83.89400599779873 109.35902709711274)"><path d="M0 0 C44.54 0, 89.07 0, 167.79 0 M167.79 0 C167.79 72.79, 167.79 145.58, 167.79 218.72 M167.79 218.72 C120.32 218.72, 72.86 218.72, 0 218.72 M0 218.72 C0 135.37, 0 52.02, 0 0" stroke="#1e1e1e" stroke-width="1.5" fill="none" stroke-dasharray="8 9"></path></g><g stroke-linecap="round" transform="translate(858.6747669263052 299.14491715242553) rotate(0 69 46.75574781393982)"><path d="M0 0 L138 0 L138 93.51 L0 93.51" stroke="none" stroke-width="0" fill="#d9e7d6"></path><path d="M0 0 C40.12 0, 80.23 0, 138 0 M0 0 C47.05 0, 94.09 0, 138 0 M138 0 C138 32.8, 138 65.6, 138 93.51 M138 0 C138 23.72, 138 47.44, 138 93.51 M138 93.51 C106.12 93.51, 74.24 93.51, 0 93.51 M138 93.51 C107.29 93.51, 76.57 93.51, 0 93.51 M0 93.51 C0 71.65, 0 49.79, 0 0 M0 93.51 C0 73.97, 0 54.44, 0 0" stroke="#2f9e44" stroke-width="1" fill="none"></path></g><g transform="translate(910.4747661633658 304.14491715242553) rotate(0 17.200000762939453 9.199999999999989)"><text x="17.200000762939453" y="13.5203125" font-family="Helvetica, Segoe UI Emoji" font-size="16px" fill="#1e1e1e" text-anchor="middle" style="white-space: pre;" direction="ltr" dominant-baseline="alphabetic">Valid</text></g><g stroke-linecap="round" transform="translate(869.9392474041899 336.6853737360747) rotate(0 58 21.5)"><path d="M10.75 0 C46.76 0, 82.77 0, 105.25 0 C112.42 0, 116 3.58, 116 10.75 C116 17.67, 116 24.6, 116 32.25 C116 39.42, 112.42 43, 105.25 43 C82.8 43, 60.35 43, 10.75 43 C3.58 43, 0 39.42, 0 32.25 C0 27.41, 0 22.57, 0 10.75 C0 3.58, 3.58 0, 10.75 0" stroke="none" stroke-width="0" fill="#ffffff"></path><path d="M10.75 0 C30.64 0, 50.52 0, 105.25 0 M10.75 0 C47.41 0, 84.07 0, 105.25 0 M105.25 0 C112.42 0, 116 3.58, 116 10.75 M105.25 0 C112.42 0, 116 3.58, 116 10.75 M116 10.75 C116 17.23, 116 23.71, 116 32.25 M116 10.75 C116 18.73, 116 26.71, 116 32.25 M116 32.25 C116 39.42, 112.42 43, 105.25 43 M116 32.25 C116 39.42, 112.42 43, 105.25 43 M105.25 43 C67.81 43, 30.37 43, 10.75 43 M105.25 43 C70.15 43, 35.05 43, 10.75 43 M10.75 43 C3.58 43, 0 39.42, 0 32.25 M10.75 43 C3.58 43, 0 39.42, 0 32.25 M0 32.25 C0 26.37, 0 20.49, 0 10.75 M0 32.25 C0 27.84, 0 23.43, 0 10.75 M0 10.75 C0 3.58, 3.58 0, 10.75 0 M0 10.75 C0 3.58, 3.58 0, 10.75 0" stroke="#1e1e1e" stroke-width="1" fill="none"></path></g><g transform="translate(895.1725809918364 348.9853737360747) rotate(0 32.766666412353516 9.199999999999989)"><text x="32.766666412353516" y="13.5203125" font-family="Helvetica, Segoe UI Emoji" font-size="16px" fill="#1e1e1e" text-anchor="middle" style="white-space: pre;" direction="ltr" dominant-baseline="alphabetic">Validated</text></g><g transform="translate(1169.5558458139517 373.18798711924325) rotate(0 37.36666488647461 18.399999999999977)"><text x="0" y="13.5203125" font-family="Helvetica, Segoe UI Emoji" font-size="16px" fill="#1e1e1e" text-anchor="start" style="white-space: pre;" direction="ltr" dominant-baseline="alphabetic">Classified</text><text x="0" y="31.920312499999998" font-family="Helvetica, Segoe UI Emoji" font-size="16px" fill="#1e1e1e" text-anchor="start" style="white-space: pre;" direction="ltr" dominant-baseline="alphabetic">operations</text></g><g stroke-linecap="round" transform="translate(1088.6503775694448 297.9237331184156) rotate(0 63.75206075603717 24.04682993429472)"><path d="M12.02 0 C39.45 0, 66.87 0, 115.48 0 C123.5 0, 127.5 4.01, 127.5 12.02 C127.5 19.13, 127.5 26.24, 127.5 36.07 C127.5 44.09, 123.5 48.09, 115.48 48.09 C93.66 48.09, 71.84 48.09, 12.02 48.09 C4.01 48.09, 0 44.09, 0 36.07 C0 29.99, 0 23.92, 0 12.02 C0 4.01, 4.01 0, 12.02 0" stroke="none" stroke-width="0" fill="#ffc9c9"></path><path d="M12.02 0 C32.79 0, 53.56 0, 115.48 0 M115.48 0 C123.5 0, 127.5 4.01, 127.5 12.02 M127.5 12.02 C127.5 19.4, 127.5 26.79, 127.5 36.07 M127.5 36.07 C127.5 44.09, 123.5 48.09, 115.48 48.09 M115.48 48.09 C89.1 48.09, 62.73 48.09, 12.02 48.09 M12.02 48.09 C4.01 48.09, 0 44.09, 0 36.07 M0 36.07 C0 28.99, 0 21.91, 0 12.02 M0 12.02 C0 4.01, 4.01 0, 12.02 0" stroke="#e03131" stroke-width="1.5" fill="none" stroke-dasharray="8 9"></path></g><g transform="translate(1111.1701466588152 312.7705630527104) rotate(0 41.23229166666667 9.200000000000017)"><text x="41.23229166666667" y="13.5203125" font-family="Helvetica, Segoe UI Emoji" font-size="16px" fill="#1e1e1e" text-anchor="middle" style="white-space: pre;" direction="ltr" dominant-baseline="alphabetic">Unparsable</text></g><g stroke-linecap="round" transform="translate(10 10) rotate(0 71.08492509397433 26.283501715419078)"><path d="M0 0 L142.17 0 L142.17 52.57 L0 52.57" stroke="none" stroke-width="0" fill="#e9ecef"></path><path d="M0 0 C33.43 0, 66.86 0, 142.17 0 M0 0 C47.46 0, 94.93 0, 142.17 0 M142.17 0 C142.17 13.32, 142.17 26.65, 142.17 52.57 M142.17 0 C142.17 13.65, 142.17 27.31, 142.17 52.57 M142.17 52.57 C102.6 52.57, 63.03 52.57, 0 52.57 M142.17 52.57 C103.33 52.57, 64.48 52.57, 0 52.57 M0 52.57 C0 36.51, 0 20.45, 0 0 M0 52.57 C0 35.65, 0 18.74, 0 0" stroke="#1e1e1e" stroke-width="1" fill="none"></path></g><g transform="translate(49.084925093974334 27.08350171541909) rotate(0 32 9.200000000000003)"><text x="32" y="13.5203125" font-family="Helvetica, Segoe UI Emoji" font-size="16px" fill="#1e1e1e" text-anchor="middle" style="white-space: pre;" direction="ltr" dominant-baseline="alphabetic">On notify</text></g><g stroke-linecap="round" transform="translate(10 97.722129709125) rotate(0 71.08492509397433 26.283501715419078)"><path d="M0 0 L142.17 0 L142.17 52.57 L0 52.57" stroke="none" stroke-width="0" fill="#ffffff"></path><path d="M0 0 C55.87 0, 111.75 0, 142.17 0 M0 0 C36.79 0, 73.59 0, 142.17 0 M142.17 0 C142.17 16.78, 142.17 33.57, 142.17 52.57 M142.17 0 C142.17 13.54, 142.17 27.08, 142.17 52.57 M142.17 52.57 C99.59 52.57, 57.01 52.57, 0 52.57 M142.17 52.57 C106.15 52.57, 70.14 52.57, 0 52.57 M0 52.57 C0 40.96, 0 29.34, 0 0 M0 52.57 C0 42.01, 0 31.46, 0 0" stroke="#1e1e1e" stroke-width="1" fill="none"></path></g><g transform="translate(43.57164384397424 114.80563142454406) rotate(0 37.51328124999998 9.199999999999989)"><text x="37.51328125" y="13.5203125" font-family="Helvetica, Segoe UI Emoji" font-size="16px" fill="#1e1e1e" text-anchor="middle" style="white-space: pre;" direction="ltr" dominant-baseline="alphabetic">On arrived</text></g><g transform="translate(101.05720792425814 67.84677012738825) rotate(0 30.683332443237305 9.199999999999989)"><text x="0" y="13.5203125" font-family="Helvetica, Segoe UI Emoji" font-size="16px" fill="#1e1e1e" text-anchor="start" style="white-space: pre;" direction="ltr" dominant-baseline="alphabetic">Fetching</text></g><g stroke-linecap="round"><g transform="translate(77.65841251790266 63.76170805426625) rotate(0 0.21327626945299016 15.184281894270526)"><path d="M0 0 C0.07 5.06, 0.36 25.31, 0.43 30.37 M0 0 C0.07 5.06, 0.36 25.31, 0.43 30.37" stroke="#1e1e1e" stroke-width="1" fill="none"></path></g><g transform="translate(77.65841251790266 63.76170805426625) rotate(0 0.21327626945299016 15.184281894270526)"><path d="M0.43 30.37 L-6.1 16.86 L6.57 16.69 L0.43 30.37" stroke="none" stroke-width="0" fill="#1e1e1e" fill-rule="evenodd"></path><path d="M0.43 30.37 C-1.36 26.67, -3.15 22.97, -6.1 16.86 M0.43 30.37 C-1.19 27.03, -2.8 23.69, -6.1 16.86 M-6.1 16.86 C-2.73 16.82, 0.65 16.77, 6.57 16.69 M-6.1 16.86 C-2.76 16.82, 0.58 16.77, 6.57 16.69 M6.57 16.69 C4.55 21.18, 2.53 25.68, 0.43 30.37 M6.57 16.69 C5.08 20.02, 3.58 23.35, 0.43 30.37 M0.43 30.37 C0.43 30.37, 0.43 30.37, 0.43 30.37 M0.43 30.37 C0.43 30.37, 0.43 30.37, 0.43 30.37" stroke="#1e1e1e" stroke-width="1" fill="none"></path></g></g><mask></mask><g stroke-linecap="round"><g transform="translate(156.9213337346241 127.40257972314959) rotate(0 556.8850090850677 40.240186117998064)"><path d="M0 0 C24 0, 48 0, 98.33 0 M98.33 0 C98.33 -29.61, 98.33 -59.23, 98.33 -111.87 M98.33 -111.87 C451.6 -111.87, 804.87 -111.87, 1113.77 -111.87 M1113.77 -111.87 C1113.77 1.1, 1113.77 114.08, 1113.77 191.83 M1113.77 191.83 C1095.65 192.02, 1077.52 192.2, 1062.35 192.35" stroke="#e03131" stroke-width="1.5" fill="none" stroke-dasharray="8 9"></path></g><g transform="translate(156.9213337346241 127.40257972314959) rotate(0 556.8850090850677 40.240186117998064)"><path d="M1062.35 192.35 L1075.88 185.88 L1076.01 198.56 L1062.35 192.35" stroke="none" stroke-width="0" fill="#e03131" fill-rule="evenodd"></path><path d="M1062.35 192.35 C1065.65 190.77, 1068.95 189.19, 1075.88 185.88 M1075.88 185.88 C1075.91 189.23, 1075.95 192.59, 1076.01 198.56 M1076.01 198.56 C1071.25 196.4, 1066.5 194.24, 1062.35 192.35 M1062.35 192.35 C1062.35 192.35, 1062.35 192.35, 1062.35 192.35" stroke="#e03131" stroke-width="1.5" fill="none"></path></g></g><mask></mask><g transform="translate(162.13512094944917 102.50264964970938) rotate(0 40.93333435058594 9.199999999999989)"><text x="0" y="13.5203125" font-family="Helvetica, Segoe UI Emoji" font-size="16px" fill="#1e1e1e" text-anchor="start" style="white-space: pre;" direction="ltr" dominant-baseline="alphabetic">Unparsable</text></g><g stroke-linecap="round" transform="translate(17.95700367265158 183.96896226201176) rotate(0 63.12792142132264 28.98855531463687)"><path d="M126.26 28.99 C126.26 30.25, 126.07 31.52, 125.72 32.77 C125.36 34.02, 124.82 35.27, 124.1 36.49 C123.39 37.71, 122.5 38.92, 121.45 40.08 C120.4 41.25, 119.17 42.39, 117.8 43.48 C116.42 44.58, 114.88 45.64, 113.21 46.64 C111.54 47.64, 109.71 48.59, 107.77 49.49 C105.82 50.38, 103.74 51.22, 101.56 51.99 C99.38 52.75, 97.07 53.46, 94.69 54.09 C92.31 54.72, 89.82 55.29, 87.29 55.77 C84.75 56.25, 82.12 56.66, 79.47 56.99 C76.81 57.32, 74.09 57.56, 71.37 57.73 C68.64 57.89, 65.87 57.98, 63.13 57.98 C60.38 57.98, 57.61 57.89, 54.89 57.73 C52.16 57.56, 49.44 57.32, 46.79 56.99 C44.14 56.66, 41.51 56.25, 38.97 55.77 C36.43 55.29, 33.94 54.72, 31.56 54.09 C29.19 53.46, 26.88 52.75, 24.7 51.99 C22.52 51.22, 20.43 50.38, 18.49 49.49 C16.55 48.59, 14.72 47.64, 13.05 46.64 C11.37 45.64, 9.83 44.58, 8.46 43.48 C7.08 42.39, 5.86 41.25, 4.81 40.08 C3.75 38.92, 2.86 37.71, 2.15 36.49 C1.44 35.27, 0.9 34.02, 0.54 32.77 C0.18 31.52, 0 30.25, 0 28.99 C0 27.73, 0.18 26.46, 0.54 25.2 C0.9 23.95, 1.44 22.7, 2.15 21.49 C2.86 20.27, 3.75 19.06, 4.81 17.9 C5.86 16.73, 7.08 15.59, 8.46 14.49 C9.83 13.4, 11.37 12.34, 13.05 11.34 C14.72 10.34, 16.55 9.38, 18.49 8.49 C20.43 7.6, 22.52 6.76, 24.7 5.99 C26.88 5.22, 29.19 4.51, 31.56 3.88 C33.94 3.25, 36.43 2.69, 38.97 2.21 C41.51 1.72, 44.14 1.31, 46.79 0.99 C49.44 0.66, 52.16 0.41, 54.89 0.25 C57.61 0.08, 60.38 0, 63.13 0 C65.87 0, 68.64 0.08, 71.37 0.25 C74.09 0.41, 76.81 0.66, 79.47 0.99 C82.12 1.31, 84.75 1.72, 87.29 2.21 C89.82 2.69, 92.31 3.25, 94.69 3.88 C97.07 4.51, 99.38 5.22, 101.56 5.99 C103.74 6.76, 105.82 7.6, 107.77 8.49 C109.71 9.38, 111.54 10.34, 113.21 11.34 C114.88 12.34, 116.42 13.4, 117.8 14.49 C119.17 15.59, 120.4 16.73, 121.45 17.9 C122.5 19.06, 123.39 20.27, 124.1 21.49 C124.82 22.7, 125.36 23.95, 125.72 25.2 C126.07 26.46, 126.17 28.36, 126.26 28.99 C126.35 29.62, 126.35 28.36, 126.26 28.99" stroke="none" stroke-width="0" fill="#ffffff"></path><path d="M126.26 28.99 C126.26 30.25, 126.07 31.52, 125.72 32.77 C125.36 34.02, 124.82 35.27, 124.1 36.49 C123.39 37.71, 122.5 38.92, 121.45 40.08 C120.4 41.25, 119.17 42.39, 117.8 43.48 C116.42 44.58, 114.88 45.64, 113.21 46.64 C111.54 47.64, 109.71 48.59, 107.77 49.49 C105.82 50.38, 103.74 51.22, 101.56 51.99 C99.38 52.75, 97.07 53.46, 94.69 54.09 C92.31 54.72, 89.82 55.29, 87.29 55.77 C84.75 56.25, 82.12 56.66, 79.47 56.99 C76.81 57.32, 74.09 57.56, 71.37 57.73 C68.64 57.89, 65.87 57.98, 63.13 57.98 C60.38 57.98, 57.61 57.89, 54.89 57.73 C52.16 57.56, 49.44 57.32, 46.79 56.99 C44.14 56.66, 41.51 56.25, 38.97 55.77 C36.43 55.29, 33.94 54.72, 31.56 54.09 C29.19 53.46, 26.88 52.75, 24.7 51.99 C22.52 51.22, 20.43 50.38, 18.49 49.49 C16.55 48.59, 14.72 47.64, 13.05 46.64 C11.37 45.64, 9.83 44.58, 8.46 43.48 C7.08 42.39, 5.86 41.25, 4.81 40.08 C3.75 38.92, 2.86 37.71, 2.15 36.49 C1.44 35.27, 0.9 34.02, 0.54 32.77 C0.18 31.52, 0 30.25, 0 28.99 C0 27.73, 0.18 26.46, 0.54 25.2 C0.9 23.95, 1.44 22.7, 2.15 21.49 C2.86 20.27, 3.75 19.06, 4.81 17.9 C5.86 16.73, 7.08 15.59, 8.46 14.49 C9.83 13.4, 11.37 12.34, 13.05 11.34 C14.72 10.34, 16.55 9.38, 18.49 8.49 C20.43 7.6, 22.52 6.76, 24.7 5.99 C26.88 5.22, 29.19 4.51, 31.56 3.88 C33.94 3.25, 36.43 2.69, 38.97 2.21 C41.51 1.72, 44.14 1.31, 46.79 0.99 C49.44 0.66, 52.16 0.41, 54.89 0.25 C57.61 0.08, 60.38 0, 63.13 0 C65.87 0, 68.64 0.08, 71.37 0.25 C74.09 0.41, 76.81 0.66, 79.47 0.99 C82.12 1.31, 84.75 1.72, 87.29 2.21 C89.82 2.69, 92.31 3.25, 94.69 3.88 C97.07 4.51, 99.38 5.22, 101.56 5.99 C103.74 6.76, 105.82 7.6, 107.77 8.49 C109.71 9.38, 111.54 10.34, 113.21 11.34 C114.88 12.34, 116.42 13.4, 117.8 14.49 C119.17 15.59, 120.4 16.73, 121.45 17.9 C122.5 19.06, 123.39 20.27, 124.1 21.49 C124.82 22.7, 125.36 23.95, 125.72 25.2 C126.07 26.46, 126.17 28.36, 126.26 28.99 C126.35 29.62, 126.35 28.36, 126.26 28.99" stroke="#1e1e1e" stroke-width="1" fill="none"></path></g><g transform="translate(49.37070210807883 203.7595135368676) rotate(0 31.576041666666697 9.199999999999989)"><text x="31.576041666666665" y="13.5203125" font-family="Helvetica, Segoe UI Emoji" font-size="16px" fill="#1e1e1e" text-anchor="middle" style="white-space: pre;" direction="ltr" dominant-baseline="alphabetic">pre_filter</text></g><g stroke-linecap="round"><g transform="translate(78.98413328719312 151.2891331399632) rotate(0 0.000024861398742359597 14.845648539243939)"><path d="M0 0 C0 9.64, 0 19.29, 0 29.69 M0 0 C0 7.21, 0 14.41, 0 29.69" stroke="#1e1e1e" stroke-width="1" fill="none"></path></g><g transform="translate(78.98413328719312 151.2891331399632) rotate(0 0.000024861398742359597 14.845648539243939)"><path d="M0 29.69 L-6.27 16.24 L6.27 16.24 L0 29.69" stroke="none" stroke-width="0" fill="#1e1e1e" fill-rule="evenodd"></path><path d="M0 29.69 C-2.04 25.32, -4.08 20.95, -6.27 16.24 M0 29.69 C-1.52 26.43, -3.05 23.16, -6.27 16.24 M-6.27 16.24 C-1.48 16.24, 3.32 16.24, 6.27 16.24 M-6.27 16.24 C-3.56 16.24, -0.85 16.24, 6.27 16.24 M6.27 16.24 C4.6 19.83, 2.92 23.43, 0 29.69 M6.27 16.24 C4.11 20.88, 1.95 25.51, 0 29.69 M0 29.69 C0 29.69, 0 29.69, 0 29.69 M0 29.69 C0 29.69, 0 29.69, 0 29.69" stroke="#1e1e1e" stroke-width="1" fill="none"></path></g></g><mask></mask><g stroke-linecap="round"><g transform="translate(145.20019504837796 213.55317420872274) rotate(0 343.37168271978624 0)"><path d="M0 0 C273.04 0, 546.08 0, 686.74 0" stroke="#e03131" stroke-width="1.5" fill="none" stroke-dasharray="8 9"></path></g><g transform="translate(145.20019504837796 213.55317420872274) rotate(0 343.37168271978624 0)"><path d="M686.74 0 L673.15 6.34 L673.15 -6.34 L686.74 0" stroke="none" stroke-width="0" fill="#e03131" fill-rule="evenodd"></path><path d="M686.74 0 C681.34 2.52, 675.93 5.04, 673.15 6.34 M673.15 6.34 C673.15 3.71, 673.15 1.08, 673.15 -6.34 M673.15 -6.34 C676.67 -4.7, 680.18 -3.06, 686.74 0 M686.74 0 C686.74 0, 686.74 0, 686.74 0" stroke="#e03131" stroke-width="1.5" fill="none"></path></g></g><mask></mask><g stroke-linecap="round" transform="translate(10 269.1739570662589) rotate(0 71.08492509397433 26.283501715419078)"><path d="M13.14 0 C45.46 0, 77.77 0, 129.03 0 C137.79 0, 142.17 4.38, 142.17 13.14 C142.17 18.82, 142.17 24.5, 142.17 39.43 C142.17 48.19, 137.79 52.57, 129.03 52.57 C85.16 52.57, 41.3 52.57, 13.14 52.57 C4.38 52.57, 0 48.19, 0 39.43 C0 31.89, 0 24.35, 0 13.14 C0 4.38, 4.38 0, 13.14 0" stroke="none" stroke-width="0" fill="#ffffff"></path><path d="M13.14 0 C43.52 0, 73.89 0, 129.03 0 M13.14 0 C58.11 0, 103.08 0, 129.03 0 M129.03 0 C137.79 0, 142.17 4.38, 142.17 13.14 M129.03 0 C137.79 0, 142.17 4.38, 142.17 13.14 M142.17 13.14 C142.17 19.52, 142.17 25.89, 142.17 39.43 M142.17 13.14 C142.17 21.59, 142.17 30.05, 142.17 39.43 M142.17 39.43 C142.17 48.19, 137.79 52.57, 129.03 52.57 M142.17 39.43 C142.17 48.19, 137.79 52.57, 129.03 52.57 M129.03 52.57 C103.82 52.57, 78.62 52.57, 13.14 52.57 M129.03 52.57 C89.47 52.57, 49.9 52.57, 13.14 52.57 M13.14 52.57 C4.38 52.57, 0 48.19, 0 39.43 M13.14 52.57 C4.38 52.57, 0 48.19, 0 39.43 M0 39.43 C0 29.85, 0 20.27, 0 13.14 M0 39.43 C0 31.78, 0 24.14, 0 13.14 M0 13.14 C0 4.38, 4.38 0, 13.14 0 M0 13.14 C0 4.38, 4.38 0, 13.14 0" stroke="#1e1e1e" stroke-width="1" fill="none"></path></g><g transform="translate(51.71825830015109 286.25745878167794) rotate(0 29.366666793823242 9.199999999999989)"><text x="29.366666793823242" y="13.5203125" font-family="Helvetica, Segoe UI Emoji" font-size="16px" fill="#1e1e1e" text-anchor="middle" style="white-space: pre;" direction="ltr" dominant-baseline="alphabetic">Pending</text></g><g stroke-linecap="round"><g transform="translate(79.56786655629253 242.93768028838213) rotate(0 0 12.350603989916038)"><path d="M0 0 C0 4.12, 0 20.58, 0 24.7 M0 0 C0 4.12, 0 20.58, 0 24.7" stroke="#1e1e1e" stroke-width="1" fill="none"></path></g><g transform="translate(79.56786655629253 242.93768028838213) rotate(0 0 12.350603989916038)"><path d="M0 24.7 L-5.22 13.51 L5.22 13.51 L0 24.7" stroke="none" stroke-width="0" fill="#1e1e1e" fill-rule="evenodd"></path><path d="M0 24.7 C-1.48 21.54, -2.95 18.37, -5.22 13.51 M0 24.7 C-1.28 21.95, -2.56 19.21, -5.22 13.51 M-5.22 13.51 C-2.98 13.51, -0.73 13.51, 5.22 13.51 M-5.22 13.51 C-2.05 13.51, 1.13 13.51, 5.22 13.51 M5.22 13.51 C3.97 16.19, 2.72 18.87, 0 24.7 M5.22 13.51 C3.94 16.25, 2.66 19, 0 24.7 M0 24.7 C0 24.7, 0 24.7, 0 24.7 M0 24.7 C0 24.7, 0 24.7, 0 24.7" stroke="#1e1e1e" stroke-width="1" fill="none"></path></g></g><mask></mask><g stroke-linecap="round" transform="translate(10 340.7068343476172) rotate(0 71.08492509397433 26.283501715419106)"><path d="M0 0 L142.17 0 L142.17 52.57 L0 52.57" stroke="none" stroke-width="0" fill="#e9ecef"></path><path d="M0 0 C35.75 0, 71.5 0, 142.17 0 M0 0 C47.83 0, 95.67 0, 142.17 0 M142.17 0 C142.17 16.62, 142.17 33.24, 142.17 52.57 M142.17 0 C142.17 12.08, 142.17 24.17, 142.17 52.57 M142.17 52.57 C94.52 52.57, 46.87 52.57, 0 52.57 M142.17 52.57 C108.86 52.57, 75.55 52.57, 0 52.57 M0 52.57 C0 38.84, 0 25.11, 0 0 M0 52.57 C0 33.95, 0 15.32, 0 0" stroke="#1e1e1e" stroke-width="1" fill="none"></path></g><g transform="translate(61.96825830015109 357.79033606303625) rotate(0 19.116666793823242 9.199999999999989)"><text x="19.116666793823242" y="13.5203125" font-family="Helvetica, Segoe UI Emoji" font-size="16px" fill="#1e1e1e" text-anchor="middle" style="white-space: pre;" direction="ltr" dominant-baseline="alphabetic">Inject</text></g><g stroke-linecap="round" transform="translate(10 438.95277265023066) rotate(0 71.08492509397433 26.283501715419106)"><path d="M0 0 L142.17 0 L142.17 52.57 L0 52.57" stroke="none" stroke-width="0" fill="#ffffff"></path><path d="M0 0 C34.86 0, 69.73 0, 142.17 0 M0 0 C49.88 0, 99.76 0, 142.17 0 M142.17 0 C142.17 15.39, 142.17 30.77, 142.17 52.57 M142.17 0 C142.17 15.99, 142.17 31.99, 142.17 52.57 M142.17 52.57 C112.52 52.57, 82.87 52.57, 0 52.57 M142.17 52.57 C86.93 52.57, 31.7 52.57, 0 52.57 M0 52.57 C0 34.96, 0 17.36, 0 0 M0 52.57 C0 32.83, 0 13.1, 0 0" stroke="#1e1e1e" stroke-width="1" fill="none"></path></g><g transform="translate(37.968260207499725 446.8362743656497) rotate(0 43.11666488647461 18.399999999999977)"><text x="43.11666488647461" y="13.5203125" font-family="Helvetica, Segoe UI Emoji" font-size="16px" fill="#1e1e1e" text-anchor="middle" style="white-space: pre;" direction="ltr" dominant-baseline="alphabetic">Output error</text><text x="43.11666488647461" y="31.920312499999998" font-family="Helvetica, Segoe UI Emoji" font-size="16px" fill="#1e1e1e" text-anchor="middle" style="white-space: pre;" direction="ltr" dominant-baseline="alphabetic">on failure</text></g><g stroke-linecap="round"><g transform="translate(81.04731117757274 395.9475411470957) rotate(0 0.037613916401596725 20.423471649886267)"><path d="M0 0 C0.01 6.81, 0.06 34.04, 0.08 40.85" stroke="#e03131" stroke-width="1.5" fill="none" stroke-dasharray="8 9"></path></g><g transform="translate(81.04731117757274 395.9475411470957) rotate(0 0.037613916401596725 20.423471649886267)"><path d="M0.08 40.85 L-6.29 27.26 L6.39 27.24 L0.08 40.85" stroke="none" stroke-width="0" fill="#e03131" fill-rule="evenodd"></path><path d="M0.08 40.85 C-1.83 36.79, -3.73 32.73, -6.29 27.26 M-6.29 27.26 C-2.11 27.26, 2.07 27.25, 6.39 27.24 M6.39 27.24 C4.98 30.29, 3.56 33.33, 0.08 40.85 M0.08 40.85 C0.08 40.85, 0.08 40.85, 0.08 40.85" stroke="#e03131" stroke-width="1.5" fill="none"></path></g></g><mask></mask><g stroke-linecap="round"><g transform="translate(153.16985018794867 362.3978434573126) rotate(0 83.36554504200967 0)"><path d="M0 0 C27.79 0, 138.94 0, 166.73 0 M0 0 C27.79 0, 138.94 0, 166.73 0" stroke="#1e1e1e" stroke-width="1" fill="none"></path></g><g transform="translate(153.16985018794867 362.3978434573126) rotate(0 83.36554504200967 0)"><path d="M166.73 0 L153.14 6.34 L153.14 -6.34 L166.73 0" stroke="none" stroke-width="0" fill="#1e1e1e" fill-rule="evenodd"></path><path d="M166.73 0 C163.5 1.51, 160.26 3.02, 153.14 6.34 M166.73 0 C163.81 1.36, 160.9 2.72, 153.14 6.34 M153.14 6.34 C153.14 3.13, 153.14 -0.08, 153.14 -6.34 M153.14 6.34 C153.14 1.32, 153.14 -3.71, 153.14 -6.34 M153.14 -6.34 C157.08 -4.5, 161.02 -2.66, 166.73 0 M153.14 -6.34 C157.25 -4.42, 161.37 -2.5, 166.73 0 M166.73 0 C166.73 0, 166.73 0, 166.73 0 M166.73 0 C166.73 0, 166.73 0, 166.73 0" stroke="#1e1e1e" stroke-width="1" fill="none"></path></g></g><mask></mask><g stroke-linecap="round"><g transform="translate(153.16985018794867 307.76153397802096) rotate(0 85.28541305120063 1.0964106623015653)"><path d="M0 0 C28.43 0.37, 142.14 1.83, 170.57 2.19 M0 0 C28.43 0.37, 142.14 1.83, 170.57 2.19" stroke="#1e1e1e" stroke-width="1" fill="none"></path></g><g transform="translate(153.16985018794867 307.76153397802096) rotate(0 85.28541305120063 1.0964106623015653)"><path d="M170.57 2.19 L156.9 8.36 L157.06 -4.32 L170.57 2.19" stroke="none" stroke-width="0" fill="#1e1e1e" fill-rule="evenodd"></path><path d="M170.57 2.19 C167.56 3.55, 164.55 4.91, 156.9 8.36 M170.57 2.19 C167.61 3.53, 164.64 4.87, 156.9 8.36 M156.9 8.36 C156.93 5.73, 156.96 3.11, 157.06 -4.32 M156.9 8.36 C156.96 3.54, 157.02 -1.28, 157.06 -4.32 M157.06 -4.32 C161.09 -2.38, 165.13 -0.43, 170.57 2.19 M157.06 -4.32 C160.55 -2.64, 164.04 -0.95, 170.57 2.19 M170.57 2.19 C170.57 2.19, 170.57 2.19, 170.57 2.19 M170.57 2.19 C170.57 2.19, 170.57 2.19, 170.57 2.19" stroke="#1e1e1e" stroke-width="1" fill="none"></path></g></g><mask></mask><g transform="translate(91.28773415199385 407.6865184430034) rotate(0 40.93333435058594 9.199999999999989)"><text x="0" y="13.5203125" font-family="Helvetica, Segoe UI Emoji" font-size="16px" fill="#1e1e1e" text-anchor="start" style="white-space: pre;" direction="ltr" dominant-baseline="alphabetic">Unparsable</text></g><g stroke-linecap="round" transform="translate(611.9933873397342 390.8120082197127) rotate(0 71.08492509397433 26.283501715419106)"><path d="M0 0 L142.17 0 L142.17 52.57 L0 52.57" stroke="none" stroke-width="0" fill="#ffffff"></path><path d="M0 0 C56.03 0, 112.06 0, 142.17 0 M0 0 C55.15 0, 110.3 0, 142.17 0 M142.17 0 C142.17 17.54, 142.17 35.09, 142.17 52.57 M142.17 0 C142.17 17.57, 142.17 35.13, 142.17 52.57 M142.17 52.57 C98.91 52.57, 55.65 52.57, 0 52.57 M142.17 52.57 C86.48 52.57, 30.79 52.57, 0 52.57 M0 52.57 C0 41.6, 0 30.64, 0 0 M0 52.57 C0 36.82, 0 21.08, 0 0" stroke="#1e1e1e" stroke-width="1" fill="none"></path></g><g transform="translate(649.7283139595875 407.89550993513177) rotate(0 33.349998474121094 9.199999999999989)"><text x="33.349998474121094" y="13.5203125" font-family="Helvetica, Segoe UI Emoji" font-size="16px" fill="#1e1e1e" text-anchor="middle" style="white-space: pre;" direction="ltr" dominant-baseline="alphabetic">Advertise</text></g><g stroke-linecap="round"><g transform="translate(436.9751369025448 276.3037572988815) rotate(0 0 -29.68076611160481)"><path d="M0 0 C0 -22.36, 0 -44.72, 0 -59.36" stroke="#e03131" stroke-width="1.5" fill="none" stroke-dasharray="8 9"></path></g></g><mask></mask><g transform="translate(447.7269311624616 254.03831320686203) rotate(0 31.133333206176758 9.199999999999989)"><text x="0" y="13.5203125" font-family="Helvetica, Segoe UI Emoji" font-size="16px" fill="#1e1e1e" text-anchor="start" style="white-space: pre;" direction="ltr" dominant-baseline="alphabetic">Not valid</text></g><g stroke-linecap="round"><g transform="translate(563.7121395720864 357.01732611794915) rotate(0 152.61355391605179 -0.14635222683557458)"><path d="M0 0 C43.37 0, 86.74 0, 167.8 0 M0 0 C47.52 0, 95.03 0, 167.8 0 M167.8 0 C221.99 -0.12, 276.18 -0.23, 305.23 -0.29 M167.8 0 C197.72 -0.06, 227.65 -0.13, 305.23 -0.29" stroke="#1e1e1e" stroke-width="1" fill="none"></path></g><g transform="translate(563.7121395720864 357.01732611794915) rotate(0 152.61355391605179 -0.14635222683557458)"><path d="M305.23 -0.29 L291.65 6.08 L291.62 -6.6 L305.23 -0.29" stroke="none" stroke-width="0" fill="#1e1e1e" fill-rule="evenodd"></path><path d="M305.23 -0.29 C301.72 1.35, 298.21 3, 291.65 6.08 M305.23 -0.29 C301.38 1.51, 297.54 3.31, 291.65 6.08 M291.65 6.08 C291.64 1.08, 291.62 -3.92, 291.62 -6.6 M291.65 6.08 C291.64 3.31, 291.63 0.55, 291.62 -6.6 M291.62 -6.6 C296.1 -4.53, 300.57 -2.45, 305.23 -0.29 M291.62 -6.6 C294.93 -5.07, 298.25 -3.53, 305.23 -0.29 M305.23 -0.29 C305.23 -0.29, 305.23 -0.29, 305.23 -0.29 M305.23 -0.29 C305.23 -0.29, 305.23 -0.29, 305.23 -0.29" stroke="#1e1e1e" stroke-width="1" fill="none"></path></g></g><mask></mask><g stroke-linecap="round"><g transform="translate(863.7624801528762 117.9599301406675) rotate(0 -102.07516524814451 90.23843305080976)"><path d="M0 0 C-44.66 0.37, -89.32 0.74, -204.15 1.7 M0 0 C-43.32 0.36, -86.64 0.72, -204.15 1.7 M-204.15 1.7 C-204.15 54.92, -204.15 108.13, -204.15 180.48 M-204.15 1.7 C-204.15 66.88, -204.15 132.05, -204.15 180.48" stroke="#1e1e1e" stroke-width="1" fill="none"></path></g></g><mask></mask><g stroke-linecap="round"><g transform="translate(841.3591878489655 297.7686415492919) rotate(0 -90.17319560973709 0)"><path d="M0 0 C-58.92 0, -117.85 0, -180.35 0 M0 0 C-43.58 0, -87.15 0, -180.35 0" stroke="#1e1e1e" stroke-width="1" fill="none"></path></g></g><mask></mask><g stroke-linecap="round"><g transform="translate(659.7604935163854 156.7414121784925) rotate(0 -70.72914638129072 0)"><path d="M0 0 C-53.53 0, -107.06 0, -141.46 0 M0 0 C-44.06 0, -88.11 0, -141.46 0" stroke="#1e1e1e" stroke-width="1" fill="none"></path></g><g transform="translate(659.7604935163854 156.7414121784925) rotate(0 -70.72914638129072 0)"><path d="M-141.46 0 L-127.86 -6.34 L-127.86 6.34 L-141.46 0" stroke="none" stroke-width="0" fill="#1e1e1e" fill-rule="evenodd"></path><path d="M-141.46 0 C-136.31 -2.4, -131.17 -4.8, -127.86 -6.34 M-141.46 0 C-137.22 -1.97, -132.99 -3.95, -127.86 -6.34 M-127.86 -6.34 C-127.86 -3.13, -127.86 0.07, -127.86 6.34 M-127.86 -6.34 C-127.86 -3.75, -127.86 -1.16, -127.86 6.34 M-127.86 6.34 C-131.24 4.76, -134.62 3.19, -141.46 0 M-127.86 6.34 C-131.79 4.51, -135.71 2.68, -141.46 0 M-141.46 0 C-141.46 0, -141.46 0, -141.46 0 M-141.46 0 C-141.46 0, -141.46 0, -141.46 0" stroke="#1e1e1e" stroke-width="1" fill="none"></path></g></g><mask></mask><g stroke-linecap="round" transform="translate(372.596869951858 125.95556706743929) rotate(0 71.08492509397433 26.283501715419078)"><path d="M0 0 L142.17 0 L142.17 52.57 L0 52.57" stroke="none" stroke-width="0" fill="#ffffff"></path><path d="M0 0 C30.05 0, 60.11 0, 142.17 0 M0 0 C31.1 0, 62.21 0, 142.17 0 M142.17 0 C142.17 13.3, 142.17 26.59, 142.17 52.57 M142.17 0 C142.17 13.28, 142.17 26.56, 142.17 52.57 M142.17 52.57 C112.43 52.57, 82.69 52.57, 0 52.57 M142.17 52.57 C98.43 52.57, 54.7 52.57, 0 52.57 M0 52.57 C0 38.84, 0 25.12, 0 0 M0 52.57 C0 39.75, 0 26.94, 0 0" stroke="#1e1e1e" stroke-width="1" fill="none"></path></g><g transform="translate(413.71851379583245 143.03906878285835) rotate(0 29.963281250000023 9.199999999999989)"><text x="29.963281249999998" y="13.5203125" font-family="Helvetica, Segoe UI Emoji" font-size="16px" fill="#1e1e1e" text-anchor="middle" style="white-space: pre;" direction="ltr" dominant-baseline="alphabetic">On flush</text></g><g transform="translate(664.0858841053631 76.90300195692106) rotate(0 55.58333206176758 18.400000000000006)"><text x="0" y="13.5203125" font-family="Helvetica, Segoe UI Emoji" font-size="16px" fill="#1e1e1e" text-anchor="start" style="white-space: pre;" direction="ltr" dominant-baseline="alphabetic">Only flushed on</text><text x="0" y="31.920312499999998" font-family="Helvetica, Segoe UI Emoji" font-size="16px" fill="#1e1e1e" text-anchor="start" style="white-space: pre;" direction="ltr" dominant-baseline="alphabetic">branch switch</text></g><g stroke-linecap="round"><g transform="translate(373.3430194112318 159.16491018116307) rotate(0 -147.0246000796419 0)"><path d="M0 0 C-104.62 0, -209.24 0, -294.05 0 M0 0 C-101.95 0, -203.89 0, -294.05 0" stroke="#1e1e1e" stroke-width="1" fill="none"></path></g></g><mask></mask><g stroke-linecap="round" transform="translate(324.74067629034994 277.3037572988815) rotate(0 118.94111875548242 70.82451228632516)"><path d="M0 0 L237.88 0 L237.88 141.65 L0 141.65" stroke="none" stroke-width="0" fill="#ffffff"></path><path d="M0 0 C76.92 0, 153.84 0, 237.88 0 M0 0 C74.68 0, 149.36 0, 237.88 0 M237.88 0 C237.88 38.36, 237.88 76.73, 237.88 141.65 M237.88 0 C237.88 48.85, 237.88 97.71, 237.88 141.65 M237.88 141.65 C170.53 141.65, 103.18 141.65, 0 141.65 M237.88 141.65 C151.97 141.65, 66.06 141.65, 0 141.65 M0 141.65 C0 108.43, 0 75.22, 0 0 M0 141.65 C0 94.12, 0 46.59, 0 0" stroke="#1e1e1e" stroke-width="1" fill="none"></path></g><g transform="translate(329.74067629034994 282.3037572988815) rotate(0 64.05000305175781 9.199999999999989)"><text x="0" y="13.5203125" font-family="Helvetica, Segoe UI Emoji" font-size="16px" fill="#1e1e1e" text-anchor="start" style="white-space: pre;" direction="ltr" dominant-baseline="alphabetic">classify_operation</text></g><g stroke-linecap="round"><g transform="translate(678.5939492976321 357.8434835020311) rotate(0 0 14.754652550408593)"><path d="M0 0 C0 10.12, 0 20.25, 0 29.51 M0 0 C0 9.78, 0 19.55, 0 29.51" stroke="#1e1e1e" stroke-width="1" fill="none"></path></g><g transform="translate(678.5939492976321 357.8434835020311) rotate(0 0 14.754652550408593)"><path d="M0 29.51 L-6.24 16.14 L6.24 16.14 L0 29.51" stroke="none" stroke-width="0" fill="#1e1e1e" fill-rule="evenodd"></path><path d="M0 29.51 C-2.14 24.92, -4.28 20.33, -6.24 16.14 M0 29.51 C-2.07 25.08, -4.13 20.65, -6.24 16.14 M-6.24 16.14 C-2.89 16.14, 0.45 16.14, 6.24 16.14 M-6.24 16.14 C-2.14 16.14, 1.95 16.14, 6.24 16.14 M6.24 16.14 C4.42 20.04, 2.6 23.94, 0 29.51 M6.24 16.14 C4.31 20.26, 2.39 24.38, 0 29.51 M0 29.51 C0 29.51, 0 29.51, 0 29.51 M0 29.51 C0 29.51, 0 29.51, 0 29.51" stroke="#1e1e1e" stroke-width="1" fill="none"></path></g></g><mask></mask><g transform="translate(198.12593696999693 338.6927218178402) rotate(0 29.799999237060547 9.199999999999989)"><text x="0" y="13.5203125" font-family="Helvetica, Segoe UI Emoji" font-size="16px" fill="#1e1e1e" text-anchor="start" style="white-space: pre;" direction="ltr" dominant-baseline="alphabetic">Injection</text></g><g stroke-linecap="round"><g transform="translate(446.3984134628238 419.95278187153184) rotate(0 -146.28237042073295 24.19881901793434)"><path d="M0 0 C0 11.54, 0 23.07, 0 48.4 M0 48.4 C-113.7 48.4, -227.4 48.4, -292.56 48.4" stroke="#e03131" stroke-width="1.5" fill="none" stroke-dasharray="8 9"></path></g><g transform="translate(446.3984134628238 419.95278187153184) rotate(0 -146.28237042073295 24.19881901793434)"><path d="M-292.56 48.4 L-278.97 42.06 L-278.97 54.74 L-292.56 48.4" stroke="none" stroke-width="0" fill="#e03131" fill-rule="evenodd"></path><path d="M-292.56 48.4 C-289.32 46.89, -286.08 45.38, -278.97 42.06 M-278.97 42.06 C-278.97 46.99, -278.97 51.91, -278.97 54.74 M-278.97 54.74 C-282.51 53.09, -286.05 51.43, -292.56 48.4 M-292.56 48.4 C-292.56 48.4, -292.56 48.4, -292.56 48.4" stroke="#e03131" stroke-width="1.5" fill="none"></path></g></g><mask></mask><g transform="translate(332.2654177628549 440.9585009394081) rotate(0 48.91666793823242 9.199999999999989)"><text x="0" y="13.5203125" font-family="Helvetica, Segoe UI Emoji" font-size="16px" fill="#1e1e1e" text-anchor="start" style="white-space: pre;" direction="ltr" dominant-baseline="alphabetic">Injection error</text></g><g stroke-linecap="round" transform="translate(221.8516318780164 536.9746175780119) rotate(0 71.08492509397433 26.28350171541905)"><path d="M0 0 L142.17 0 L142.17 52.57 L0 52.57" stroke="none" stroke-width="0" fill="#e9ecef"></path><path d="M0 0 C29.66 0, 59.31 0, 142.17 0 M0 0 C48.88 0, 97.77 0, 142.17 0 M142.17 0 C142.17 18.33, 142.17 36.67, 142.17 52.57 M142.17 0 C142.17 14.96, 142.17 29.92, 142.17 52.57 M142.17 52.57 C86.83 52.57, 31.49 52.57, 0 52.57 M142.17 52.57 C105.21 52.57, 68.26 52.57, 0 52.57 M0 52.57 C0 35.83, 0 19.1, 0 0 M0 52.57 C0 32.2, 0 11.84, 0 0" stroke="#1e1e1e" stroke-width="1" fill="none"></path></g><g transform="translate(256.9198905596372 554.058119293431) rotate(0 36.016666412353516 9.199999999999989)"><text x="36.016666412353516" y="13.5203125" font-family="Helvetica, Segoe UI Emoji" font-size="16px" fill="#1e1e1e" text-anchor="middle" style="white-space: pre;" direction="ltr" dominant-baseline="alphabetic">Entrypoint</text></g><g stroke-linecap="round" transform="translate(688.6997201659283 531.9994898421319) rotate(0 60 32)"><path d="M120 32 C120 33.39, 119.83 34.8, 119.49 36.18 C119.15 37.56, 118.63 38.94, 117.96 40.28 C117.28 41.63, 116.43 42.96, 115.43 44.25 C114.43 45.53, 113.27 46.79, 111.96 48 C110.66 49.21, 109.19 50.38, 107.6 51.48 C106.01 52.58, 104.27 53.64, 102.43 54.63 C100.58 55.61, 98.6 56.54, 96.53 57.39 C94.45 58.23, 92.26 59.02, 90 59.71 C87.74 60.41, 85.37 61.03, 82.96 61.56 C80.55 62.1, 78.05 62.55, 75.53 62.91 C73.01 63.27, 70.42 63.54, 67.83 63.73 C65.24 63.91, 62.61 64, 60 64 C57.39 64, 54.76 63.91, 52.17 63.73 C49.58 63.54, 46.99 63.27, 44.47 62.91 C41.95 62.55, 39.45 62.1, 37.04 61.56 C34.63 61.03, 32.26 60.41, 30 59.71 C27.74 59.02, 25.55 58.23, 23.47 57.39 C21.4 56.54, 19.42 55.61, 17.57 54.63 C15.73 53.64, 13.99 52.58, 12.4 51.48 C10.81 50.38, 9.34 49.21, 8.04 48 C6.73 46.79, 5.57 45.53, 4.57 44.25 C3.57 42.96, 2.72 41.63, 2.04 40.28 C1.37 38.94, 0.85 37.56, 0.51 36.18 C0.17 34.8, 0 33.39, 0 32 C0 30.61, 0.17 29.2, 0.51 27.82 C0.85 26.44, 1.37 25.06, 2.04 23.72 C2.72 22.37, 3.57 21.04, 4.57 19.75 C5.57 18.47, 6.73 17.21, 8.04 16 C9.34 14.79, 10.81 13.62, 12.4 12.52 C13.99 11.42, 15.73 10.36, 17.57 9.37 C19.42 8.39, 21.4 7.46, 23.47 6.61 C25.55 5.77, 27.74 4.98, 30 4.29 C32.26 3.59, 34.63 2.97, 37.04 2.44 C39.45 1.9, 41.95 1.45, 44.47 1.09 C46.99 0.73, 49.58 0.46, 52.17 0.27 C54.76 0.09, 57.39 0, 60 0 C62.61 0, 65.24 0.09, 67.83 0.27 C70.42 0.46, 73.01 0.73, 75.53 1.09 C78.05 1.45, 80.55 1.9, 82.96 2.44 C85.37 2.97, 87.74 3.59, 90 4.29 C92.26 4.98, 94.45 5.77, 96.53 6.61 C98.6 7.46, 100.58 8.39, 102.43 9.37 C104.27 10.36, 106.01 11.42, 107.6 12.52 C109.19 13.62, 110.66 14.79, 111.96 16 C113.27 17.21, 114.43 18.47, 115.43 19.75 C116.43 21.04, 117.28 22.37, 117.96 23.72 C118.63 25.06, 119.15 26.44, 119.49 27.82 C119.83 29.2, 119.91 31.3, 120 32 C120.09 32.7, 120.09 31.3, 120 32" stroke="none" stroke-width="0" fill="#ffffff"></path><path d="M120 32 C120 33.39, 119.83 34.8, 119.49 36.18 C119.15 37.56, 118.63 38.94, 117.96 40.28 C117.28 41.63, 116.43 42.96, 115.43 44.25 C114.43 45.53, 113.27 46.79, 111.96 48 C110.66 49.21, 109.19 50.38, 107.6 51.48 C106.01 52.58, 104.27 53.64, 102.43 54.63 C100.58 55.61, 98.6 56.54, 96.53 57.39 C94.45 58.23, 92.26 59.02, 90 59.71 C87.74 60.41, 85.37 61.03, 82.96 61.56 C80.55 62.1, 78.05 62.55, 75.53 62.91 C73.01 63.27, 70.42 63.54, 67.83 63.73 C65.24 63.91, 62.61 64, 60 64 C57.39 64, 54.76 63.91, 52.17 63.73 C49.58 63.54, 46.99 63.27, 44.47 62.91 C41.95 62.55, 39.45 62.1, 37.04 61.56 C34.63 61.03, 32.26 60.41, 30 59.71 C27.74 59.02, 25.55 58.23, 23.47 57.39 C21.4 56.54, 19.42 55.61, 17.57 54.63 C15.73 53.64, 13.99 52.58, 12.4 51.48 C10.81 50.38, 9.34 49.21, 8.04 48 C6.73 46.79, 5.57 45.53, 4.57 44.25 C3.57 42.96, 2.72 41.63, 2.04 40.28 C1.37 38.94, 0.85 37.56, 0.51 36.18 C0.17 34.8, 0 33.39, 0 32 C0 30.61, 0.17 29.2, 0.51 27.82 C0.85 26.44, 1.37 25.06, 2.04 23.72 C2.72 22.37, 3.57 21.04, 4.57 19.75 C5.57 18.47, 6.73 17.21, 8.04 16 C9.34 14.79, 10.81 13.62, 12.4 12.52 C13.99 11.42, 15.73 10.36, 17.57 9.37 C19.42 8.39, 21.4 7.46, 23.47 6.61 C25.55 5.77, 27.74 4.98, 30 4.29 C32.26 3.59, 34.63 2.97, 37.04 2.44 C39.45 1.9, 41.95 1.45, 44.47 1.09 C46.99 0.73, 49.58 0.46, 52.17 0.27 C54.76 0.09, 57.39 0, 60 0 C62.61 0, 65.24 0.09, 67.83 0.27 C70.42 0.46, 73.01 0.73, 75.53 1.09 C78.05 1.45, 80.55 1.9, 82.96 2.44 C85.37 2.97, 87.74 3.59, 90 4.29 C92.26 4.98, 94.45 5.77, 96.53 6.61 C98.6 7.46, 100.58 8.39, 102.43 9.37 C104.27 10.36, 106.01 11.42, 107.6 12.52 C109.19 13.62, 110.66 14.79, 111.96 16 C113.27 17.21, 114.43 18.47, 115.43 19.75 C116.43 21.04, 117.28 22.37, 117.96 23.72 C118.63 25.06, 119.15 26.44, 119.49 27.82 C119.83 29.2, 119.91 31.3, 120 32 C120.09 32.7, 120.09 31.3, 120 32" stroke="#1e1e1e" stroke-width="1" fill="none"></path></g><g transform="translate(711.7702289848396 555.3708070213775) rotate(0 37.003084309895826 8.50126582278483)"><text x="37.003084309895826" y="12.493453322784811" font-family="Helvetica, Segoe UI Emoji" font-size="14.78481012658228px" fill="#1e1e1e" text-anchor="middle" style="white-space: pre;" direction="ltr" dominant-baseline="alphabetic">Plugin filter</text></g><g stroke-linecap="round" transform="translate(374.4872172867208 536.2855443791279) rotate(0 74.60862851898958 27.656646778590982)"><path d="M13.83 0 C40.44 0, 67.04 0, 135.39 0 C144.61 0, 149.22 4.61, 149.22 13.83 C149.22 22.04, 149.22 30.26, 149.22 41.48 C149.22 50.7, 144.61 55.31, 135.39 55.31 C95.62 55.31, 55.86 55.31, 13.83 55.31 C4.61 55.31, 0 50.7, 0 41.48 C0 33.95, 0 26.41, 0 13.83 C0 4.61, 4.61 0, 13.83 0" stroke="none" stroke-width="0" fill="#ffffff"></path><path d="M13.83 0 C49.93 0, 86.04 0, 135.39 0 M13.83 0 C47.37 0, 80.92 0, 135.39 0 M135.39 0 C144.61 0, 149.22 4.61, 149.22 13.83 M135.39 0 C144.61 0, 149.22 4.61, 149.22 13.83 M149.22 13.83 C149.22 19.8, 149.22 25.78, 149.22 41.48 M149.22 13.83 C149.22 19.61, 149.22 25.39, 149.22 41.48 M149.22 41.48 C149.22 50.7, 144.61 55.31, 135.39 55.31 M149.22 41.48 C149.22 50.7, 144.61 55.31, 135.39 55.31 M135.39 55.31 C98.17 55.31, 60.95 55.31, 13.83 55.31 M135.39 55.31 C96.85 55.31, 58.32 55.31, 13.83 55.31 M13.83 55.31 C4.61 55.31, 0 50.7, 0 41.48 M13.83 55.31 C4.61 55.31, 0 50.7, 0 41.48 M0 41.48 C0 34.51, 0 27.54, 0 13.83 M0 41.48 C0 34.1, 0 26.71, 0 13.83 M0 13.83 C0 4.61, 4.61 0, 13.83 0 M0 13.83 C0 4.61, 4.61 0, 13.83 0" stroke="#1e1e1e" stroke-width="1" fill="none"></path></g><g transform="translate(430.4291797748265 554.7421911577189) rotate(0 18.66666603088379 9.199999999999989)"><text x="18.66666603088379" y="13.5203125" font-family="Helvetica, Segoe UI Emoji" font-size="16px" fill="#1e1e1e" text-anchor="middle" style="white-space: pre;" direction="ltr" dominant-baseline="alphabetic">State</text></g><g stroke-linecap="round" transform="translate(535.7234836764417 537.9967797249271) rotate(0 71.08492509397433 26.283501715419106)"><path d="M0 0 L142.17 0 L142.17 52.57 L0 52.57" stroke="none" stroke-width="0" fill="#ffffff"></path><path d="M0 0 C53.76 0, 107.53 0, 142.17 0 M0 0 C33.21 0, 66.42 0, 142.17 0 M142.17 0 C142.17 11.88, 142.17 23.76, 142.17 52.57 M142.17 0 C142.17 12.25, 142.17 24.5, 142.17 52.57 M142.17 52.57 C105.67 52.57, 69.18 52.57, 0 52.57 M142.17 52.57 C96.05 52.57, 49.93 52.57, 0 52.57 M0 52.57 C0 38.91, 0 25.26, 0 0 M0 52.57 C0 38.45, 0 24.34, 0 0" stroke="#1e1e1e" stroke-width="1" fill="none"></path></g><g transform="translate(576.1250763271787 555.0802814403462) rotate(0 30.683332443237305 9.199999999999989)"><text x="30.683332443237305" y="13.5203125" font-family="Helvetica, Segoe UI Emoji" font-size="16px" fill="#1e1e1e" text-anchor="middle" style="white-space: pre;" direction="ltr" dominant-baseline="alphabetic">Function</text></g><g stroke-linecap="round" transform="translate(816.6643017463788 506.566502727946) rotate(0 80.09804201182402 49.639458319557946)"><path d="M101.25 12.5 C113.58 20.46, 125.91 28.43, 139.95 37.5 M101.25 12.5 C113.31 20.29, 125.38 28.09, 139.95 37.5 M139.95 37.5 C160.2 50, 160.2 50, 139.95 62.5 M139.95 37.5 C160.2 50, 160.2 50, 139.95 62.5 M139.95 62.5 C125.47 71.58, 110.99 80.67, 101.25 86.78 M139.95 62.5 C127.2 70.49, 114.46 78.49, 101.25 86.78 M101.25 86.78 C81 99.28, 81 99.28, 60.75 86.78 M101.25 86.78 C81 99.28, 81 99.28, 60.75 86.78 M60.75 86.78 C46.41 78.18, 32.06 69.58, 20.25 62.5 M60.75 86.78 C47.7 78.96, 34.65 71.13, 20.25 62.5 M20.25 62.5 C0 50, 0 50, 20.25 37.5 M20.25 62.5 C0 50, 0 50, 20.25 37.5 M20.25 37.5 C30.49 31.18, 40.73 24.86, 60.75 12.5 M20.25 37.5 C29.48 31.8, 38.71 26.11, 60.75 12.5 M60.75 12.5 C81 0, 81 0, 101.25 12.5 M60.75 12.5 C81 0, 81 0, 101.25 12.5" stroke="#1e1e1e" stroke-width="2" fill="none"></path></g><g transform="translate(862.5281746403116 543.015989673192) rotate(0 34.185148111979174 13.37024221453288)"><text x="34.18514811197917" y="9.824448529411761" font-family="Helvetica, Segoe UI Emoji" font-size="11.626297577854666px" fill="#1e1e1e" text-anchor="middle" style="white-space: pre;" direction="ltr" dominant-baseline="alphabetic">Protocol-side</text><text x="34.18514811197917" y="23.194690743944626" font-family="Helvetica, Segoe UI Emoji" font-size="11.626297577854666px" fill="#1e1e1e" text-anchor="middle" style="white-space: pre;" direction="ltr" dominant-baseline="alphabetic">mempool</text></g><g stroke-linecap="round" transform="translate(353.11348250474 306.34106801695503) rotate(0 102.99926985166411 50.557950645775975)"><path d="M128.75 12.75 C145.32 20.96, 161.89 29.16, 180.25 38.25 M128.75 12.75 C149.27 22.91, 169.78 33.07, 180.25 38.25 M180.25 38.25 C206 51, 206 51, 180.25 63.75 M180.25 38.25 C206 51, 206 51, 180.25 63.75 M180.25 63.75 C165.58 70.76, 150.91 77.77, 128.75 88.37 M180.25 63.75 C164.9 71.09, 149.55 78.42, 128.75 88.37 M128.75 88.37 C103 101.12, 103 101.12, 77.25 88.37 M128.75 88.37 C103 101.12, 103 101.12, 77.25 88.37 M77.25 88.37 C65.26 82.64, 53.28 76.91, 25.75 63.75 M77.25 88.37 C58.74 79.52, 40.23 70.67, 25.75 63.75 M25.75 63.75 C0 51, 0 51, 25.75 38.25 M25.75 63.75 C0 51, 0 51, 25.75 38.25 M25.75 38.25 C36.99 32.68, 48.23 27.12, 77.25 12.75 M25.75 38.25 C46.2 28.12, 66.65 18, 77.25 12.75 M77.25 12.75 C103 0, 103 0, 128.75 12.75 M77.25 12.75 C103 0, 103 0, 128.75 12.75" stroke="#1e1e1e" stroke-width="2" fill="none"></path></g><g transform="translate(410.24824112848864 348.8931202629199) rotate(0 45.8648763020833 8.226923076923072)"><text x="45.86487630208333" y="12.090279447115382" font-family="Helvetica, Segoe UI Emoji" font-size="14.307692307692307px" fill="#1e1e1e" text-anchor="middle" style="white-space: pre;" direction="ltr" dominant-baseline="alphabetic">add_operation</text></g></svg>