<svg width="16" height="16" viewBox="0 0 16 16" xmlns="http://www.w3.org/2000/svg">
    <g fill="none" fill-rule="evenodd">
        <path d="m7.203 15.8-5.48-3.241A1.484 1.484 0 0 1 1.19 12c-.127-.23-.19-.48-.19-.748V4.797c0-.267.063-.517.19-.748.126-.23.304-.417.532-.558L7.228.201C7.46.067 7.718 0 8 0c.282 0 .54.067.772.2l5.506 3.291c.228.141.406.327.532.558.127.231.19.48.19.748v6.456a1.507 1.507 0 0 1-.747 1.306l-5.555 3.24a1.51 1.51 0 0 1-.752.201c-.263 0-.51-.067-.743-.2z" fill="#1F7EDD"/>
        <g fill="#F9F9F9" fill-rule="nonzero">
            <path d="M4.333 11.333c-.386 0-.682-.1-.887-.302-.205-.202-.308-.495-.308-.88V6.558H1.667v-.426h1.47V4.667h.46v1.465h2.07v.426h-2.07v3.593c0 .505.246.757.736.757h1.242v.425H4.333zM6.333 11.333v-.446l3.29-4.45H6.425V6H10.2v.456l-3.3 4.441h3.432v.436zM11.26 9.786l.667-3.116H11l.083-.467 1.021-.105.584-1.431h.75l-.303 1.441h1.198l-.093.625-1.22-.042-.624 3.031a2.795 2.795 0 0 0-.083.53c0 .078.022.136.067.175a.226.226 0 0 0 .151.058c.216 0 .514-.236.896-.71l.281.212a4.59 4.59 0 0 1-.494.642 2.563 2.563 0 0 1-.636.508c-.233.131-.48.196-.745.196a.757.757 0 0 1-.49-.159c-.131-.106-.197-.265-.197-.477 0-.113.01-.243.031-.392.02-.148.049-.321.083-.52z"/>
        </g>
    </g>
</svg>
