<svg width="185" height="87" viewBox="0 0 185 87" fill="none" xmlns="http://www.w3.org/2000/svg">
<g clip-path="url(#clip0_1_2)">
<path d="M55.0357 11.1786C46.5488 11.1786 38.4095 14.55 32.4083 20.5511C26.4072 26.5523 23.0357 34.6916 23.0357 43.1786C23.0357 51.6655 26.4072 59.8048 32.4083 65.806C38.4095 71.8071 46.5488 75.1786 55.0357 75.1786H56.2486H151.001H152.213C160.7 75.1786 168.84 71.8071 174.841 65.806C180.842 59.8048 184.213 51.6655 184.213 43.1786C184.213 34.6916 180.842 26.5523 174.841 20.5511C168.84 14.55 160.7 11.1786 152.213 11.1786H151.001H56.2486H55.0357Z" fill="#4D4D4D"/>
<path d="M43.3036 86.6072C67.2195 86.6072 86.6072 67.2195 86.6072 43.3036C86.6072 19.3877 67.2195 0 43.3036 0C19.3877 0 1.52588e-05 19.3877 1.52588e-05 43.3036C1.52588e-05 67.2195 19.3877 86.6072 43.3036 86.6072Z" fill="black"/>
<path d="M35.6542 48.2652C36.7526 48.2652 37.7823 48.1966 38.7434 48.0593C39.7045 47.8762 40.6198 47.6703 41.4894 47.4414V52.1096C40.6198 52.43 39.5672 52.7046 38.3315 52.9334C37.1416 53.1623 35.8372 53.2767 34.4185 53.2767C32.2674 53.2767 30.4139 52.9105 28.8578 52.1783C27.3017 51.4002 26.1118 50.1874 25.288 48.5398C24.51 46.8465 24.1209 44.6268 24.1209 41.8808V20.5306H18.9035V17.6473L24.3955 15.3819L26.5923 7.28116H30.1622V15.7251H40.8029V20.5306H30.1622V41.6062C30.1622 43.8487 30.6198 45.5192 31.5352 46.6176C32.4963 47.716 33.8693 48.2652 35.6542 48.2652ZM69.43 15.7251V19.8441L53.0913 37.0753C57.3018 37.2583 60.7114 38.0135 63.3201 39.3407C65.9288 40.6222 67.8281 42.3842 69.0181 44.6268C70.208 46.8693 70.803 49.5238 70.803 52.5902C70.8487 55.7938 70.1394 58.6543 68.6748 61.1714C67.256 63.6886 65.1965 65.6337 62.4963 67.0067C59.7961 68.4255 56.5466 69.112 52.748 69.0662C50.2308 69.0662 47.8967 68.8602 45.7457 68.4483C43.5947 68.0364 41.6038 67.4415 39.7732 66.6634V61.1028C41.8784 62.1097 43.9837 62.8419 46.089 63.2996C48.24 63.7573 50.3453 63.9861 52.4048 63.9861C55.1508 63.9861 57.4162 63.4827 59.2011 62.4758C61.0318 61.4689 62.3819 60.0959 63.2515 58.3568C64.1668 56.6176 64.6245 54.6268 64.6245 52.3842C64.6245 50.1417 64.121 48.2423 63.1142 46.6863C62.1531 45.1302 60.6199 43.9403 58.5146 43.1165C56.4093 42.2469 53.6176 41.8121 50.1393 41.8121H46.0203V37.2812L61.8098 20.5306H40.8029V15.7251H69.43Z" fill="white"/>
<path d="M90.8811 41.9433C90.2451 42.2793 89.7651 42.6873 89.4411 43.1673C89.1231 43.6473 88.9641 44.1693 88.9641 44.7333C88.9641 45.1233 89.0361 45.4683 89.1801 45.7683C89.3241 46.0623 89.5131 46.3113 89.7471 46.5153C89.9811 46.7193 90.2481 46.8753 90.5481 46.9833C90.8481 47.0853 91.1541 47.1363 91.4661 47.1363C92.1381 47.1363 92.7411 47.0133 93.2751 46.7673C93.8151 46.5213 94.2861 46.1913 94.6881 45.7773L90.8811 41.9433ZM99.1971 48.2973H97.6401C97.4661 48.2973 97.3251 48.2763 97.2171 48.2343C97.1091 48.1923 96.9921 48.1053 96.8661 47.9733L95.5611 46.6593C94.9971 47.2053 94.3461 47.6403 93.6081 47.9643C92.8761 48.2823 92.0691 48.4413 91.1871 48.4413C90.7071 48.4413 90.2361 48.3603 89.7741 48.1983C89.3181 48.0363 88.9071 47.8023 88.5411 47.4963C88.1751 47.1843 87.8811 46.8063 87.6591 46.3623C87.4371 45.9183 87.3261 45.4173 87.3261 44.8593C87.3261 44.4393 87.3951 44.0433 87.5331 43.6713C87.6771 43.2933 87.8751 42.9453 88.1271 42.6273C88.3791 42.3093 88.6761 42.0243 89.0181 41.7723C89.3601 41.5203 89.7351 41.3043 90.1431 41.1243C89.7771 40.6563 89.5071 40.2063 89.3331 39.7743C89.1591 39.3363 89.0721 38.8833 89.0721 38.4153C89.0721 37.9773 89.1501 37.5663 89.3061 37.1823C89.4681 36.7983 89.6991 36.4653 89.9991 36.1833C90.2991 35.8953 90.6621 35.6703 91.0881 35.5083C91.5201 35.3403 92.0031 35.2563 92.5371 35.2563C93.0111 35.2563 93.4431 35.3343 93.8331 35.4903C94.2231 35.6403 94.5591 35.8413 94.8411 36.0933C95.1231 36.3453 95.3451 36.6393 95.5071 36.9753C95.6751 37.3053 95.7711 37.6503 95.7951 38.0103L94.7961 38.2083C94.5981 38.2563 94.4511 38.1633 94.3551 37.9293C94.3131 37.7733 94.2441 37.6113 94.1481 37.4433C94.0581 37.2753 93.9381 37.1223 93.7881 36.9843C93.6441 36.8463 93.4671 36.7323 93.2571 36.6423C93.0531 36.5523 92.8131 36.5073 92.5371 36.5073C92.2371 36.5073 91.9641 36.5553 91.7181 36.6513C91.4781 36.7473 91.2711 36.8823 91.0971 37.0563C90.9291 37.2243 90.8001 37.4253 90.7101 37.6593C90.6201 37.8873 90.5751 38.1363 90.5751 38.4063C90.5751 38.6163 90.5991 38.8173 90.6471 39.0093C90.6951 39.2013 90.7701 39.3963 90.8721 39.5943C90.9801 39.7923 91.1151 39.9933 91.2771 40.1973C91.4391 40.4013 91.6341 40.6173 91.8621 40.8453L95.5701 44.6163C95.7981 44.2083 95.9811 43.7853 96.1191 43.3473C96.2571 42.9033 96.3471 42.4623 96.3891 42.0243C96.4011 41.9103 96.4371 41.8203 96.4971 41.7543C96.5571 41.6883 96.6411 41.6553 96.7491 41.6553H97.7301C97.7241 42.3453 97.6161 43.0233 97.4061 43.6893C97.1961 44.3493 96.8931 44.9703 96.4971 45.5523L99.1971 48.2973ZM109.408 42.0873C109.906 42.0873 110.344 42.0213 110.722 41.8893C111.106 41.7573 111.427 41.5743 111.685 41.3403C111.949 41.1003 112.147 40.8153 112.279 40.4853C112.411 40.1553 112.477 39.7923 112.477 39.3963C112.477 38.5743 112.222 37.9323 111.712 37.4703C111.208 37.0083 110.44 36.7773 109.408 36.7773H107.338V42.0873H109.408ZM109.408 35.4003C110.224 35.4003 110.932 35.4963 111.532 35.6883C112.138 35.8743 112.639 36.1413 113.035 36.4893C113.431 36.8373 113.725 37.2573 113.917 37.7493C114.115 38.2413 114.214 38.7903 114.214 39.3963C114.214 39.9963 114.109 40.5453 113.899 41.0433C113.689 41.5413 113.38 41.9703 112.972 42.3303C112.57 42.6903 112.069 42.9723 111.469 43.1763C110.875 43.3743 110.188 43.4733 109.408 43.4733H107.338V48.2973H105.601V35.4003H109.408ZM117.379 41.0073C117.667 40.3833 118.021 39.8973 118.441 39.5493C118.861 39.1953 119.374 39.0183 119.98 39.0183C120.172 39.0183 120.355 39.0393 120.529 39.0813C120.709 39.1233 120.868 39.1893 121.006 39.2793L120.889 40.4763C120.853 40.6263 120.763 40.7013 120.619 40.7013C120.535 40.7013 120.412 40.6833 120.25 40.6473C120.088 40.6113 119.905 40.5933 119.701 40.5933C119.413 40.5933 119.155 40.6353 118.927 40.7193C118.705 40.8033 118.504 40.9293 118.324 41.0973C118.15 41.2593 117.991 41.4633 117.847 41.7093C117.709 41.9493 117.583 42.2253 117.469 42.5373V48.2973H115.858V39.1803H116.776C116.95 39.1803 117.07 39.2133 117.136 39.2793C117.202 39.3453 117.247 39.4593 117.271 39.6213L117.379 41.0073ZM125.888 39.0363C126.554 39.0363 127.154 39.1473 127.688 39.3693C128.222 39.5913 128.678 39.9063 129.056 40.3143C129.434 40.7223 129.722 41.2173 129.92 41.7993C130.124 42.3753 130.226 43.0203 130.226 43.7343C130.226 44.4543 130.124 45.1023 129.92 45.6783C129.722 46.2543 129.434 46.7463 129.056 47.1543C128.678 47.5623 128.222 47.8773 127.688 48.0993C127.154 48.3153 126.554 48.4233 125.888 48.4233C125.216 48.4233 124.61 48.3153 124.07 48.0993C123.536 47.8773 123.08 47.5623 122.702 47.1543C122.324 46.7463 122.033 46.2543 121.829 45.6783C121.631 45.1023 121.532 44.4543 121.532 43.7343C121.532 43.0203 121.631 42.3753 121.829 41.7993C122.033 41.2173 122.324 40.7223 122.702 40.3143C123.08 39.9063 123.536 39.5913 124.07 39.3693C124.61 39.1473 125.216 39.0363 125.888 39.0363ZM125.888 47.1723C126.788 47.1723 127.46 46.8723 127.904 46.2723C128.348 45.6663 128.57 44.8233 128.57 43.7433C128.57 42.6573 128.348 41.8113 127.904 41.2053C127.46 40.5993 126.788 40.2963 125.888 40.2963C125.432 40.2963 125.033 40.3743 124.691 40.5303C124.355 40.6863 124.073 40.9113 123.845 41.2053C123.623 41.4993 123.455 41.8623 123.341 42.2943C123.233 42.7203 123.179 43.2033 123.179 43.7433C123.179 44.8233 123.401 45.6663 123.845 46.2723C124.295 46.8723 124.976 47.1723 125.888 47.1723ZM134.899 48.4413C134.179 48.4413 133.624 48.2403 133.234 47.8383C132.85 47.4363 132.658 46.8573 132.658 46.1013V40.5213H131.56C131.464 40.5213 131.383 40.4943 131.317 40.4403C131.251 40.3803 131.218 40.2903 131.218 40.1703V39.5313L132.712 39.3423L133.081 36.5253C133.099 36.4353 133.138 36.3633 133.198 36.3093C133.264 36.2493 133.348 36.2193 133.45 36.2193H134.26V39.3603H136.897V40.5213H134.26V45.9933C134.26 46.3773 134.353 46.6623 134.539 46.8483C134.725 47.0343 134.965 47.1273 135.259 47.1273C135.427 47.1273 135.571 47.1063 135.691 47.0643C135.817 47.0163 135.925 46.9653 136.015 46.9113C136.105 46.8573 136.18 46.8093 136.24 46.7673C136.306 46.7193 136.363 46.6953 136.411 46.6953C136.495 46.6953 136.57 46.7463 136.636 46.8483L137.104 47.6133C136.828 47.8713 136.495 48.0753 136.105 48.2253C135.715 48.3693 135.313 48.4413 134.899 48.4413ZM142.341 39.0363C143.007 39.0363 143.607 39.1473 144.141 39.3693C144.675 39.5913 145.131 39.9063 145.509 40.3143C145.887 40.7223 146.175 41.2173 146.373 41.7993C146.577 42.3753 146.679 43.0203 146.679 43.7343C146.679 44.4543 146.577 45.1023 146.373 45.6783C146.175 46.2543 145.887 46.7463 145.509 47.1543C145.131 47.5623 144.675 47.8773 144.141 48.0993C143.607 48.3153 143.007 48.4233 142.341 48.4233C141.669 48.4233 141.063 48.3153 140.523 48.0993C139.989 47.8773 139.533 47.5623 139.155 47.1543C138.777 46.7463 138.486 46.2543 138.282 45.6783C138.084 45.1023 137.985 44.4543 137.985 43.7343C137.985 43.0203 138.084 42.3753 138.282 41.7993C138.486 41.2173 138.777 40.7223 139.155 40.3143C139.533 39.9063 139.989 39.5913 140.523 39.3693C141.063 39.1473 141.669 39.0363 142.341 39.0363ZM142.341 47.1723C143.241 47.1723 143.913 46.8723 144.357 46.2723C144.801 45.6663 145.023 44.8233 145.023 43.7433C145.023 42.6573 144.801 41.8113 144.357 41.2053C143.913 40.5993 143.241 40.2963 142.341 40.2963C141.885 40.2963 141.486 40.3743 141.144 40.5303C140.808 40.6863 140.526 40.9113 140.298 41.2053C140.076 41.4993 139.908 41.8623 139.794 42.2943C139.686 42.7203 139.632 43.2033 139.632 43.7433C139.632 44.8233 139.854 45.6663 140.298 46.2723C140.748 46.8723 141.429 47.1723 142.341 47.1723ZM155.056 40.8003C155.008 40.8663 154.96 40.9173 154.912 40.9533C154.864 40.9893 154.798 41.0073 154.714 41.0073C154.624 41.0073 154.525 40.9713 154.417 40.8993C154.309 40.8213 154.174 40.7373 154.012 40.6473C153.856 40.5573 153.661 40.4763 153.427 40.4043C153.199 40.3263 152.917 40.2873 152.581 40.2873C152.131 40.2873 151.735 40.3683 151.393 40.5303C151.051 40.6863 150.763 40.9143 150.529 41.2143C150.301 41.5143 150.127 41.8773 150.007 42.3033C149.893 42.7293 149.836 43.2063 149.836 43.7343C149.836 44.2863 149.899 44.7783 150.025 45.2103C150.151 45.6363 150.328 45.9963 150.556 46.2903C150.79 46.5783 151.069 46.8003 151.393 46.9563C151.723 47.1063 152.092 47.1813 152.5 47.1813C152.89 47.1813 153.211 47.1363 153.463 47.0463C153.715 46.9503 153.922 46.8453 154.084 46.7313C154.252 46.6173 154.39 46.5153 154.498 46.4253C154.612 46.3293 154.723 46.2813 154.831 46.2813C154.963 46.2813 155.065 46.3323 155.137 46.4343L155.587 47.0193C155.389 47.2653 155.164 47.4753 154.912 47.6493C154.66 47.8233 154.387 47.9703 154.093 48.0903C153.805 48.2043 153.502 48.2883 153.184 48.3423C152.866 48.3963 152.542 48.4233 152.212 48.4233C151.642 48.4233 151.111 48.3183 150.619 48.1083C150.133 47.8983 149.71 47.5953 149.35 47.1993C148.99 46.7973 148.708 46.3053 148.504 45.7233C148.3 45.1413 148.198 44.4783 148.198 43.7343C148.198 43.0563 148.291 42.4293 148.477 41.8533C148.669 41.2773 148.945 40.7823 149.305 40.3683C149.671 39.9483 150.118 39.6213 150.646 39.3873C151.18 39.1533 151.792 39.0363 152.482 39.0363C153.124 39.0363 153.688 39.1413 154.174 39.3513C154.666 39.5553 155.101 39.8463 155.479 40.2243L155.056 40.8003ZM160.992 39.0363C161.658 39.0363 162.258 39.1473 162.792 39.3693C163.326 39.5913 163.782 39.9063 164.16 40.3143C164.538 40.7223 164.826 41.2173 165.024 41.7993C165.228 42.3753 165.33 43.0203 165.33 43.7343C165.33 44.4543 165.228 45.1023 165.024 45.6783C164.826 46.2543 164.538 46.7463 164.16 47.1543C163.782 47.5623 163.326 47.8773 162.792 48.0993C162.258 48.3153 161.658 48.4233 160.992 48.4233C160.32 48.4233 159.714 48.3153 159.174 48.0993C158.64 47.8773 158.184 47.5623 157.806 47.1543C157.428 46.7463 157.137 46.2543 156.933 45.6783C156.735 45.1023 156.636 44.4543 156.636 43.7343C156.636 43.0203 156.735 42.3753 156.933 41.7993C157.137 41.2173 157.428 40.7223 157.806 40.3143C158.184 39.9063 158.64 39.5913 159.174 39.3693C159.714 39.1473 160.32 39.0363 160.992 39.0363ZM160.992 47.1723C161.892 47.1723 162.564 46.8723 163.008 46.2723C163.452 45.6663 163.674 44.8233 163.674 43.7433C163.674 42.6573 163.452 41.8113 163.008 41.2053C162.564 40.5993 161.892 40.2963 160.992 40.2963C160.536 40.2963 160.137 40.3743 159.795 40.5303C159.459 40.6863 159.177 40.9113 158.949 41.2053C158.727 41.4993 158.559 41.8623 158.445 42.2943C158.337 42.7203 158.283 43.2033 158.283 43.7433C158.283 44.8233 158.505 45.6663 158.949 46.2723C159.399 46.8723 160.08 47.1723 160.992 47.1723ZM169.018 35.0403V48.2973H167.416V35.0403H169.018Z" fill="white"/>
<path d="M93.2625 60.346C93.2625 61.0437 93.152 61.6785 92.931 62.2505C92.71 62.8225 92.398 63.3122 91.995 63.7195C91.592 64.1268 91.1067 64.4432 90.539 64.6685C89.9757 64.8895 89.3517 65 88.667 65H85.1895V55.6855H88.667C89.3517 55.6855 89.9757 55.7982 90.539 56.0235C91.1067 56.2445 91.592 56.5608 91.995 56.9725C92.398 57.3798 92.71 57.8695 92.931 58.4415C93.152 59.0135 93.2625 59.6483 93.2625 60.346ZM91.969 60.346C91.969 59.774 91.891 59.2627 91.735 58.812C91.579 58.3613 91.358 57.98 91.072 57.668C90.786 57.356 90.4393 57.1177 90.032 56.953C89.6247 56.7883 89.1697 56.706 88.667 56.706H86.4505V63.9795H88.667C89.1697 63.9795 89.6247 63.8972 90.032 63.7325C90.4393 63.5678 90.786 63.3317 91.072 63.024C91.358 62.712 91.579 62.3307 91.735 61.88C91.891 61.4293 91.969 60.918 91.969 60.346ZM97.4928 58.3115C97.9738 58.3115 98.4071 58.3917 98.7928 58.552C99.1784 58.7123 99.5078 58.9398 99.7808 59.2345C100.054 59.5292 100.262 59.8867 100.405 60.307C100.552 60.723 100.626 61.1888 100.626 61.7045C100.626 62.2245 100.552 62.6925 100.405 63.1085C100.262 63.5245 100.054 63.8798 99.7808 64.1745C99.5078 64.4692 99.1784 64.6967 98.7928 64.857C98.4071 65.013 97.9738 65.091 97.4928 65.091C97.0074 65.091 96.5698 65.013 96.1798 64.857C95.7941 64.6967 95.4648 64.4692 95.1918 64.1745C94.9188 63.8798 94.7086 63.5245 94.5613 63.1085C94.4183 62.6925 94.3468 62.2245 94.3468 61.7045C94.3468 61.1888 94.4183 60.723 94.5613 60.307C94.7086 59.8867 94.9188 59.5292 95.1918 59.2345C95.4648 58.9398 95.7941 58.7123 96.1798 58.552C96.5698 58.3917 97.0074 58.3115 97.4928 58.3115ZM97.4928 64.1875C98.1428 64.1875 98.6281 63.9708 98.9488 63.5375C99.2694 63.0998 99.4298 62.491 99.4298 61.711C99.4298 60.9267 99.2694 60.3157 98.9488 59.878C98.6281 59.4403 98.1428 59.2215 97.4928 59.2215C97.1634 59.2215 96.8753 59.2778 96.6283 59.3905C96.3856 59.5032 96.1819 59.6657 96.0173 59.878C95.8569 60.0903 95.7356 60.3525 95.6533 60.6645C95.5753 60.9722 95.5363 61.321 95.5363 61.711C95.5363 62.491 95.6966 63.0998 96.0173 63.5375C96.3423 63.9708 96.8341 64.1875 97.4928 64.1875ZM106.676 59.5855C106.641 59.6332 106.606 59.67 106.572 59.696C106.537 59.722 106.489 59.735 106.429 59.735C106.364 59.735 106.292 59.709 106.214 59.657C106.136 59.6007 106.039 59.54 105.922 59.475C105.809 59.41 105.668 59.3515 105.499 59.2995C105.335 59.2432 105.131 59.215 104.888 59.215C104.563 59.215 104.277 59.2735 104.03 59.3905C103.783 59.5032 103.575 59.6678 103.406 59.8845C103.242 60.1012 103.116 60.3633 103.029 60.671C102.947 60.9787 102.906 61.3232 102.906 61.7045C102.906 62.1032 102.951 62.4585 103.042 62.7705C103.133 63.0782 103.261 63.3382 103.426 63.5505C103.595 63.7585 103.796 63.9188 104.03 64.0315C104.269 64.1398 104.535 64.194 104.83 64.194C105.111 64.194 105.343 64.1615 105.525 64.0965C105.707 64.0272 105.857 63.9513 105.974 63.869C106.095 63.7867 106.195 63.713 106.273 63.648C106.355 63.5787 106.435 63.544 106.513 63.544C106.609 63.544 106.682 63.5808 106.734 63.6545L107.059 64.077C106.916 64.2547 106.754 64.4063 106.572 64.532C106.39 64.6577 106.193 64.7638 105.98 64.8505C105.772 64.9328 105.553 64.9935 105.324 65.0325C105.094 65.0715 104.86 65.091 104.622 65.091C104.21 65.091 103.827 65.0152 103.471 64.8635C103.12 64.7118 102.815 64.493 102.555 64.207C102.295 63.9167 102.091 63.5613 101.944 63.141C101.796 62.7207 101.723 62.2418 101.723 61.7045C101.723 61.2148 101.79 60.762 101.924 60.346C102.063 59.93 102.262 59.5725 102.522 59.2735C102.787 58.9702 103.109 58.734 103.491 58.565C103.876 58.396 104.318 58.3115 104.817 58.3115C105.28 58.3115 105.688 58.3873 106.039 58.539C106.394 58.6863 106.708 58.8965 106.981 59.1695L106.676 59.5855ZM113.716 58.4155V65H113.027C112.862 65 112.758 64.9198 112.715 64.7595L112.624 64.051C112.338 64.3673 112.017 64.623 111.662 64.818C111.306 65.0087 110.899 65.104 110.44 65.104C110.08 65.104 109.762 65.0455 109.484 64.9285C109.211 64.8072 108.982 64.6382 108.795 64.4215C108.609 64.2048 108.468 63.9427 108.373 63.635C108.282 63.3273 108.236 62.9872 108.236 62.6145V58.4155H109.393V62.6145C109.393 63.1128 109.506 63.4985 109.731 63.7715C109.961 64.0445 110.31 64.181 110.778 64.181C111.12 64.181 111.439 64.1008 111.733 63.9405C112.032 63.7758 112.307 63.5505 112.559 63.2645V58.4155H113.716ZM115.55 65V58.4155H116.246C116.41 58.4155 116.512 58.4957 116.551 58.656L116.636 59.332C116.878 59.033 117.151 58.7882 117.455 58.5975C117.758 58.4068 118.109 58.3115 118.508 58.3115C118.95 58.3115 119.307 58.435 119.58 58.682C119.858 58.929 120.057 59.2627 120.178 59.683C120.274 59.4447 120.395 59.2388 120.542 59.0655C120.694 58.8922 120.863 58.7492 121.049 58.6365C121.236 58.5238 121.433 58.4415 121.641 58.3895C121.853 58.3375 122.068 58.3115 122.284 58.3115C122.631 58.3115 122.939 58.3678 123.207 58.4805C123.48 58.5888 123.71 58.7492 123.896 58.9615C124.087 59.1738 124.232 59.436 124.332 59.748C124.431 60.0557 124.481 60.4088 124.481 60.8075V65H123.318V60.8075C123.318 60.2918 123.205 59.9018 122.98 59.6375C122.754 59.3688 122.429 59.2345 122.005 59.2345C121.814 59.2345 121.632 59.2692 121.459 59.3385C121.29 59.4035 121.14 59.501 121.01 59.631C120.88 59.761 120.776 59.9257 120.698 60.125C120.625 60.32 120.588 60.5475 120.588 60.8075V65H119.424V60.8075C119.424 60.2788 119.318 59.8845 119.106 59.6245C118.893 59.3645 118.584 59.2345 118.176 59.2345C117.89 59.2345 117.626 59.3125 117.383 59.4685C117.141 59.6202 116.917 59.8282 116.714 60.0925V65H115.55ZM130.647 60.9895C130.647 60.7208 130.608 60.476 130.53 60.255C130.456 60.0297 130.346 59.8368 130.198 59.6765C130.055 59.5118 129.88 59.3862 129.672 59.2995C129.464 59.2085 129.228 59.163 128.963 59.163C128.409 59.163 127.969 59.3255 127.644 59.6505C127.323 59.9712 127.124 60.4175 127.046 60.9895H130.647ZM131.583 64.077C131.44 64.2503 131.269 64.402 131.069 64.532C130.87 64.6577 130.655 64.7617 130.426 64.844C130.2 64.9263 129.966 64.987 129.724 65.026C129.481 65.0693 129.241 65.091 129.002 65.091C128.547 65.091 128.127 65.0152 127.741 64.8635C127.36 64.7075 127.028 64.4822 126.747 64.1875C126.469 63.8885 126.253 63.5202 126.097 63.0825C125.941 62.6448 125.863 62.1422 125.863 61.5745C125.863 61.1152 125.932 60.6862 126.071 60.2875C126.214 59.8888 126.417 59.5443 126.682 59.254C126.946 58.9593 127.269 58.7297 127.65 58.565C128.032 58.396 128.461 58.3115 128.937 58.3115C129.332 58.3115 129.696 58.3787 130.029 58.513C130.367 58.643 130.658 58.8337 130.9 59.085C131.147 59.332 131.34 59.6397 131.479 60.008C131.617 60.372 131.687 60.788 131.687 61.256C131.687 61.438 131.667 61.5593 131.628 61.62C131.589 61.6807 131.516 61.711 131.407 61.711H127.007C127.02 62.127 127.076 62.4888 127.176 62.7965C127.28 63.1042 127.423 63.362 127.605 63.57C127.787 63.7737 128.003 63.9275 128.255 64.0315C128.506 64.1312 128.788 64.181 129.1 64.181C129.39 64.181 129.639 64.1485 129.847 64.0835C130.06 64.0142 130.242 63.9405 130.393 63.8625C130.545 63.7845 130.671 63.713 130.77 63.648C130.874 63.5787 130.963 63.544 131.037 63.544C131.132 63.544 131.206 63.5808 131.258 63.6545L131.583 64.077ZM134.2 59.371C134.343 59.2107 134.495 59.0655 134.655 58.9355C134.815 58.8055 134.984 58.695 135.162 58.604C135.344 58.5087 135.535 58.4372 135.734 58.3895C135.938 58.3375 136.156 58.3115 136.39 58.3115C136.75 58.3115 137.066 58.3722 137.339 58.4935C137.617 58.6105 137.846 58.7795 138.028 59.0005C138.215 59.2172 138.356 59.4793 138.451 59.787C138.546 60.0947 138.594 60.4348 138.594 60.8075V65H137.43V60.8075C137.43 60.3092 137.316 59.9235 137.086 59.6505C136.861 59.3732 136.516 59.2345 136.052 59.2345C135.71 59.2345 135.389 59.3168 135.09 59.4815C134.796 59.6462 134.523 59.8693 134.271 60.151V65H133.108V58.4155H133.803C133.968 58.4155 134.07 58.4957 134.109 58.656L134.2 59.371ZM142.29 65.104C141.77 65.104 141.369 64.9588 141.087 64.6685C140.81 64.3782 140.671 63.96 140.671 63.414V59.384H139.878C139.809 59.384 139.75 59.3645 139.703 59.3255C139.655 59.2822 139.631 59.2172 139.631 59.1305V58.669L140.71 58.5325L140.977 56.498C140.99 56.433 141.018 56.381 141.061 56.342C141.109 56.2987 141.169 56.277 141.243 56.277H141.828V58.5455H143.733V59.384H141.828V63.336C141.828 63.6133 141.895 63.8192 142.03 63.9535C142.164 64.0878 142.337 64.155 142.55 64.155C142.671 64.155 142.775 64.1398 142.862 64.1095C142.953 64.0748 143.031 64.038 143.096 63.999C143.161 63.96 143.215 63.9253 143.258 63.895C143.306 63.8603 143.347 63.843 143.382 63.843C143.442 63.843 143.496 63.8798 143.544 63.9535L143.882 64.506C143.683 64.6923 143.442 64.8397 143.161 64.948C142.879 65.052 142.589 65.104 142.29 65.104ZM148.496 62.036C147.963 62.0533 147.508 62.0967 147.131 62.166C146.758 62.231 146.453 62.3177 146.214 62.426C145.98 62.5343 145.809 62.6622 145.701 62.8095C145.597 62.9568 145.545 63.1215 145.545 63.3035C145.545 63.4768 145.573 63.6263 145.629 63.752C145.686 63.8777 145.761 63.9817 145.857 64.064C145.956 64.142 146.071 64.2005 146.201 64.2395C146.336 64.2742 146.479 64.2915 146.63 64.2915C146.834 64.2915 147.02 64.272 147.189 64.233C147.358 64.1897 147.516 64.129 147.664 64.051C147.815 63.973 147.958 63.8798 148.093 63.7715C148.231 63.6632 148.366 63.5397 148.496 63.401V62.036ZM144.758 59.345C145.122 58.994 145.514 58.7318 145.935 58.5585C146.355 58.3852 146.821 58.2985 147.332 58.2985C147.701 58.2985 148.028 58.3592 148.314 58.4805C148.6 58.6018 148.84 58.7708 149.035 58.9875C149.23 59.2042 149.378 59.4663 149.477 59.774C149.577 60.0817 149.627 60.4197 149.627 60.788V65H149.113C149.001 65 148.914 64.9827 148.853 64.948C148.793 64.909 148.745 64.8353 148.71 64.727L148.58 64.103C148.407 64.2633 148.238 64.4063 148.073 64.532C147.909 64.6533 147.735 64.7573 147.553 64.844C147.371 64.9263 147.176 64.9892 146.968 65.0325C146.765 65.0802 146.537 65.104 146.286 65.104C146.03 65.104 145.79 65.0693 145.564 65C145.339 64.9263 145.142 64.818 144.973 64.675C144.808 64.532 144.676 64.3522 144.576 64.1355C144.481 63.9145 144.433 63.6545 144.433 63.3555C144.433 63.0955 144.505 62.8463 144.648 62.608C144.791 62.3653 145.023 62.1508 145.343 61.9645C145.664 61.7782 146.082 61.6265 146.598 61.5095C147.113 61.3882 147.746 61.3188 148.496 61.3015V60.788C148.496 60.2767 148.385 59.891 148.164 59.631C147.943 59.3667 147.62 59.2345 147.196 59.2345C146.91 59.2345 146.669 59.2713 146.474 59.345C146.284 59.4143 146.117 59.4945 145.974 59.5855C145.835 59.6722 145.714 59.7523 145.61 59.826C145.51 59.8953 145.41 59.93 145.311 59.93C145.233 59.93 145.166 59.9105 145.109 59.8715C145.053 59.8282 145.005 59.7762 144.966 59.7155L144.758 59.345ZM157.41 65H156.253V59.384H152.86V63.336C152.86 63.6133 152.927 63.8192 153.062 63.9535C153.196 64.0878 153.369 64.155 153.582 64.155C153.703 64.155 153.807 64.1398 153.894 64.1095C153.985 64.0748 154.063 64.038 154.128 63.999C154.193 63.96 154.247 63.9253 154.29 63.895C154.338 63.8603 154.379 63.843 154.414 63.843C154.474 63.843 154.529 63.8798 154.576 63.9535L154.914 64.506C154.715 64.6923 154.474 64.8397 154.193 64.948C153.911 65.052 153.621 65.104 153.322 65.104C152.802 65.104 152.401 64.9588 152.119 64.6685C151.842 64.3782 151.703 63.96 151.703 63.414V59.384H150.91C150.841 59.384 150.782 59.3645 150.735 59.3255C150.687 59.2822 150.663 59.2172 150.663 59.1305V58.669L151.742 58.526L152.009 56.498C152.022 56.433 152.05 56.381 152.093 56.342C152.141 56.2987 152.202 56.277 152.275 56.277H152.86V58.5455H157.41V65ZM157.696 56.303C157.696 56.4157 157.672 56.5218 157.625 56.6215C157.581 56.7168 157.521 56.8013 157.443 56.875C157.369 56.9487 157.282 57.0072 157.183 57.0505C157.083 57.0938 156.977 57.1155 156.864 57.1155C156.752 57.1155 156.645 57.0938 156.546 57.0505C156.45 57.0072 156.366 56.9487 156.292 56.875C156.219 56.8013 156.16 56.7168 156.117 56.6215C156.073 56.5218 156.052 56.4157 156.052 56.303C156.052 56.1903 156.073 56.0842 156.117 55.9845C156.16 55.8805 156.219 55.7917 156.292 55.718C156.366 55.64 156.45 55.5793 156.546 55.536C156.645 55.4927 156.752 55.471 156.864 55.471C156.977 55.471 157.083 55.4927 157.183 55.536C157.282 55.5793 157.369 55.64 157.443 55.718C157.521 55.7917 157.581 55.8805 157.625 55.9845C157.672 56.0842 157.696 56.1903 157.696 56.303ZM162.087 58.3115C162.568 58.3115 163.001 58.3917 163.387 58.552C163.772 58.7123 164.102 58.9398 164.375 59.2345C164.648 59.5292 164.856 59.8867 164.999 60.307C165.146 60.723 165.22 61.1888 165.22 61.7045C165.22 62.2245 165.146 62.6925 164.999 63.1085C164.856 63.5245 164.648 63.8798 164.375 64.1745C164.102 64.4692 163.772 64.6967 163.387 64.857C163.001 65.013 162.568 65.091 162.087 65.091C161.601 65.091 161.164 65.013 160.774 64.857C160.388 64.6967 160.059 64.4692 159.786 64.1745C159.513 63.8798 159.302 63.5245 159.155 63.1085C159.012 62.6925 158.941 62.2245 158.941 61.7045C158.941 61.1888 159.012 60.723 159.155 60.307C159.302 59.8867 159.513 59.5292 159.786 59.2345C160.059 58.9398 160.388 58.7123 160.774 58.552C161.164 58.3917 161.601 58.3115 162.087 58.3115ZM162.087 64.1875C162.737 64.1875 163.222 63.9708 163.543 63.5375C163.863 63.0998 164.024 62.491 164.024 61.711C164.024 60.9267 163.863 60.3157 163.543 59.878C163.222 59.4403 162.737 59.2215 162.087 59.2215C161.757 59.2215 161.469 59.2778 161.222 59.3905C160.979 59.5032 160.776 59.6657 160.611 59.878C160.451 60.0903 160.329 60.3525 160.247 60.6645C160.169 60.9722 160.13 61.321 160.13 61.711C160.13 62.491 160.29 63.0998 160.611 63.5375C160.936 63.9708 161.428 64.1875 162.087 64.1875ZM167.779 59.371C167.922 59.2107 168.074 59.0655 168.234 58.9355C168.394 58.8055 168.563 58.695 168.741 58.604C168.923 58.5087 169.114 58.4372 169.313 58.3895C169.517 58.3375 169.736 58.3115 169.97 58.3115C170.329 58.3115 170.646 58.3722 170.919 58.4935C171.196 58.6105 171.426 58.7795 171.608 59.0005C171.794 59.2172 171.935 59.4793 172.03 59.787C172.125 60.0947 172.173 60.4348 172.173 60.8075V65H171.01V60.8075C171.01 60.3092 170.895 59.9235 170.665 59.6505C170.44 59.3732 170.095 59.2345 169.632 59.2345C169.289 59.2345 168.969 59.3168 168.67 59.4815C168.375 59.6462 168.102 59.8693 167.851 60.151V65H166.687V58.4155H167.383C167.547 58.4155 167.649 58.4957 167.688 58.656L167.779 59.371Z" fill="white"/>
<path d="M108.969 29.9822C108.143 29.9822 107.402 29.824 106.746 29.5076C106.089 29.1912 105.53 28.7458 105.067 28.1716C104.61 27.5916 104.258 26.906 104.012 26.115C103.772 25.324 103.652 24.4509 103.652 23.4958V23.3113C103.652 22.3621 103.772 21.4919 104.012 20.7009C104.258 19.9041 104.61 19.2156 105.067 18.6355C105.53 18.0554 106.089 17.6072 106.746 17.2908C107.402 16.9744 108.143 16.8162 108.969 16.8162C109.842 16.8162 110.61 16.9744 111.272 17.2908C111.934 17.6072 112.488 18.0554 112.933 18.6355C113.384 19.2156 113.724 19.9041 113.953 20.7009C114.181 21.4919 114.295 22.3621 114.295 23.3113V23.4958C114.295 24.4509 114.181 25.324 113.953 26.115C113.724 26.906 113.384 27.5916 112.933 28.1716C112.488 28.7458 111.934 29.1912 111.272 29.5076C110.61 29.824 109.842 29.9822 108.969 29.9822ZM108.969 28.5408C109.819 28.5408 110.504 28.3298 111.026 27.908C111.553 27.4861 111.94 26.8972 112.186 26.1414C112.432 25.3796 112.555 24.4978 112.555 23.4958V23.2937C112.555 22.2976 112.429 21.4246 112.177 20.6746C111.931 19.9187 111.544 19.3298 111.017 18.908C110.49 18.4802 109.807 18.2664 108.969 18.2664C108.202 18.2664 107.551 18.4802 107.018 18.908C106.485 19.3357 106.081 19.9275 105.805 20.6833C105.53 21.4333 105.392 22.3035 105.392 23.2937V23.4958C105.392 24.4919 105.53 25.3708 105.805 26.1326C106.081 26.8884 106.485 27.4802 107.018 27.908C107.551 28.3298 108.202 28.5408 108.969 28.5408ZM119.868 29.9822C119.006 29.9822 118.256 29.783 117.618 29.3845C116.979 28.9802 116.484 28.4207 116.132 27.7058C115.781 26.991 115.605 26.1648 115.605 25.2273V24.8582C115.605 23.9558 115.775 23.1472 116.115 22.4324C116.455 21.7175 116.944 21.1521 117.583 20.7361C118.221 20.3201 118.983 20.1121 119.868 20.1121C120.635 20.1121 121.306 20.238 121.88 20.49C122.461 20.7419 122.947 21.0876 123.339 21.5271L123.383 23.8123H122.03L121.731 22.1511C121.532 21.946 121.283 21.782 120.984 21.6589C120.685 21.5359 120.334 21.4744 119.929 21.4744C119.414 21.4744 118.96 21.6267 118.567 21.9314C118.18 22.2361 117.878 22.6433 117.662 23.1531C117.445 23.6628 117.336 24.2312 117.336 24.8582V25.2273C117.336 25.9187 117.436 26.5193 117.635 27.0291C117.84 27.5388 118.13 27.9343 118.505 28.2156C118.886 28.491 119.337 28.6287 119.859 28.6287C120.445 28.6287 120.931 28.4675 121.318 28.1453C121.705 27.823 121.942 27.3806 122.03 26.8181H123.586L123.603 26.8708C123.574 27.4158 123.413 27.9255 123.12 28.4001C122.827 28.8748 122.408 29.2585 121.863 29.5515C121.324 29.8386 120.659 29.9822 119.868 29.9822ZM128.314 29.947C127.611 29.947 127.051 29.7419 126.635 29.3318C126.225 28.9158 126.02 28.2537 126.02 27.3455V21.571H124.517V20.2878H126.02V17.9939H127.752V20.2878H129.817V21.571H127.752V27.3455C127.752 27.8025 127.842 28.1394 128.024 28.3562C128.206 28.573 128.449 28.6814 128.753 28.6814C128.959 28.6814 129.187 28.6638 129.439 28.6287C129.691 28.5876 129.887 28.5525 130.028 28.5232L130.265 29.657C130.013 29.7332 129.703 29.8005 129.334 29.8591C128.97 29.9177 128.63 29.947 128.314 29.947ZM135.53 29.9822C134.651 29.9822 133.886 29.783 133.236 29.3845C132.586 28.9802 132.082 28.4207 131.724 27.7058C131.373 26.991 131.197 26.1648 131.197 25.2273V24.8406C131.197 23.9382 131.381 23.1326 131.751 22.4236C132.126 21.7087 132.621 21.1462 133.236 20.7361C133.857 20.3201 134.534 20.1121 135.266 20.1121C136.122 20.1121 136.836 20.2878 137.411 20.6394C137.991 20.991 138.427 21.4861 138.72 22.1248C139.013 22.7576 139.16 23.5046 139.16 24.366V25.447H132.99L132.963 25.491C132.975 26.1003 133.081 26.6423 133.28 27.1169C133.485 27.5857 133.778 27.9548 134.159 28.2244C134.54 28.4939 134.997 28.6287 135.53 28.6287C136.116 28.6287 136.628 28.5466 137.068 28.3826C137.513 28.2126 137.897 27.9812 138.219 27.6882L138.896 28.8132C138.556 29.1414 138.105 29.4197 137.543 29.6482C136.986 29.8708 136.315 29.9822 135.53 29.9822ZM133.043 24.0935H137.428V23.865C137.428 23.408 137.346 23.0007 137.182 22.6433C137.024 22.28 136.784 21.9958 136.461 21.7908C136.145 21.5798 135.747 21.4744 135.266 21.4744C134.879 21.4744 134.528 21.5886 134.211 21.8171C133.895 22.0398 133.634 22.3445 133.429 22.7312C133.224 23.1179 133.089 23.5574 133.025 24.0496L133.043 24.0935ZM140.636 29.7976V28.5847L145.813 21.6238H142.271L142.051 23.2234H140.751V20.2878H147.958V21.4656L142.728 28.4792H146.78L147.008 26.8708H148.3V29.7976H140.636Z" fill="white"/>
</g>
<defs>
<clipPath id="clip0_1_2">
<rect width="184.213" height="86.6071" fill="white"/>
</clipPath>
</defs>
</svg>
